<?xml version="1.0" encoding="UTF-8" standalone="no"?>
<!-- Created with Inkscape (http://www.inkscape.org/) -->

<svg
   xmlns:dc="http://purl.org/dc/elements/1.1/"
   xmlns:cc="http://creativecommons.org/ns#"
   xmlns:rdf="http://www.w3.org/1999/02/22-rdf-syntax-ns#"
   xmlns:svg="http://www.w3.org/2000/svg"
   xmlns="http://www.w3.org/2000/svg"
   xmlns:sodipodi="http://sodipodi.sourceforge.net/DTD/sodipodi-0.dtd"
   xmlns:inkscape="http://www.inkscape.org/namespaces/inkscape"
   width="29"
   height="116"
   id="svg2"
   version="1.1"
   inkscape:version="0.48.3.1 r9886"
   sodipodi:docname="chain straight links.svg"
   inkscape:export-filename="/home/tomas/development/coursera-android-capstone/projects/android-client/res/drawable-xhdpi/chain_straight.png"
   inkscape:export-xdpi="204.82759"
   inkscape:export-ydpi="204.82759">
  <defs
     id="defs4">
    <linearGradient
       id="linearGradient3820">
      <stop
         id="stop3822"
         offset="0"
         style="stop-color:#3f52b6;stop-opacity:0.51304346;" />
      <stop
         style="stop-color:#d9ddf4;stop-opacity:1;"
         offset="0.04278384"
         id="stop3824" />
      <stop
         id="stop3826"
         offset="0.65384614"
         style="stop-color:#a1a6cf;stop-opacity:1;" />
      <stop
         style="stop-color:#858bbc;stop-opacity:1;"
         offset="0.65384614"
         id="stop3828" />
      <stop
         id="stop3830"
         offset="1"
         style="stop-color:#6970aa;stop-opacity:1;" />
      <stop
         id="stop3832"
         offset="1"
         style="stop-color:#2a43d0;stop-opacity:0.52173913;" />
    </linearGradient>
    <linearGradient
       id="linearGradient3778">
      <stop
         style="stop-color:#3f52b6;stop-opacity:0.51304346;"
         offset="0"
         id="stop3793" />
      <stop
         id="stop3795"
         offset="0"
         style="stop-color:#d9ddf4;stop-opacity:1;" />
      <stop
         style="stop-color:#a1a6cf;stop-opacity:1;"
         offset="0.65384614"
         id="stop3812" />
      <stop
         id="stop3816"
         offset="0.65384614"
         style="stop-color:#858bbc;stop-opacity:1;" />
      <stop
         style="stop-color:#6970aa;stop-opacity:1;"
         offset="1"
         id="stop3797" />
      <stop
         style="stop-color:#2a43d0;stop-opacity:0.52173913;"
         offset="1"
         id="stop3782" />
    </linearGradient>
  </defs>
  <sodipodi:namedview
     id="base"
     pagecolor="#fff8e1"
     bordercolor="#666666"
     borderopacity="1.0"
     inkscape:pageopacity="0"
     inkscape:pageshadow="2"
     inkscape:zoom="4.6153569"
     inkscape:cx="17.122444"
     inkscape:cy="46.430134"
     inkscape:document-units="px"
     inkscape:current-layer="layer7"
     showgrid="false"
     inkscape:snap-grids="false"
     inkscape:snap-to-guides="false"
     inkscape:window-width="1920"
     inkscape:window-height="1030"
     inkscape:window-x="1600"
     inkscape:window-y="1"
     inkscape:window-maximized="1" />
  <metadata
     id="metadata7">
    <rdf:RDF>
      <cc:Work
         rdf:about="">
        <dc:format>image/svg+xml</dc:format>
        <dc:type
           rdf:resource="http://purl.org/dc/dcmitype/StillImage" />
        <dc:title></dc:title>
      </cc:Work>
    </rdf:RDF>
  </metadata>
  <g
     inkscape:label="link white outline"
     inkscape:groupmode="layer"
     id="layer1"
     transform="translate(0,-936.36218)"
     style="display:none"
     sodipodi:insensitive="true">
    <rect
       style="fill:#5c6bc0;fill-opacity:1;stroke:none"
       id="rect3757"
       width="43.75"
       height="17.329546"
       x="30.965908"
       y="935.88495" />
    <path
       inkscape:connector-curvature="0"
       d="m -26.34492,43.769593 c -5.688819,0 -10.375001,4.68618 -10.375001,10.375 l 0,17.99999 c 0,5.6888 4.686182,10.375 10.375001,10.375 l 0.8125,0 c 5.688818,0 10.34375,-4.6862 10.34375,-10.375 l 0,-17.99999 c 0,-5.68882 -4.654932,-10.375 -10.34375,-10.375 l -0.8125,0 z m 0,5.5 0.8125,0 c 2.736953,0 4.84375,2.13805 4.84375,4.875 l 0,17.99999 c 0,2.737 -2.106797,4.875 -4.84375,4.875 l -0.8125,0 c -2.736953,0 -4.875001,-2.138 -4.875001,-4.875 l 0,-17.99999 c 0,-2.73695 2.138048,-4.875 4.875001,-4.875 z"
       style="font-size:medium;font-style:normal;font-variant:normal;font-weight:normal;font-stretch:normal;text-indent:0;text-align:start;text-decoration:none;line-height:normal;letter-spacing:normal;word-spacing:normal;text-transform:none;direction:ltr;block-progression:tb;writing-mode:lr-tb;text-anchor:start;baseline-shift:baseline;color:#000000;fill:#ffffff;fill-opacity:1;stroke:none;stroke-width:5.5;marker:none;visibility:visible;display:inline;overflow:visible;enable-background:accumulate;font-family:Sans;-inkscape-font-specification:Sans"
       id="path3928"
       transform="translate(0,936.36218)" />
  </g>
  <g
     inkscape:groupmode="layer"
     id="layer2"
     inkscape:label="link reflect light"
     style="display:none"
     sodipodi:insensitive="true">
    <path
       id="path3920"
       style="font-size:medium;font-style:normal;font-variant:normal;font-weight:normal;font-stretch:normal;text-indent:0;text-align:start;text-decoration:none;line-height:normal;letter-spacing:normal;word-spacing:normal;text-transform:none;direction:ltr;block-progression:tb;writing-mode:lr-tb;text-anchor:start;baseline-shift:baseline;color:#000000;fill:#b2c7e4;fill-opacity:1;stroke:none;stroke-width:5.5;marker:none;visibility:visible;display:inline;overflow:visible;enable-background:accumulate;font-family:Sans;-inkscape-font-specification:Sans"
       d="m 53.407613,87.31325 c -5.979452,0 -10.905044,4.68618 -10.905044,10.375 l 0,17.9999 c 0,5.6888 4.925592,10.375 10.905044,10.375 l 0.85401,0 c 5.979451,0 10.872197,-4.6862 10.872197,-10.375 l 0,-17.9999 c 0,-5.68882 -4.892746,-10.375 -10.872197,-10.375 l -0.85401,0 z m 0,5.5 0.85401,0 c 2.87678,0 5.09121,2.13805 5.09121,4.875 l 0,17.9999 c 0,2.737 -2.21443,4.875 -5.09121,4.875 l -0.85401,0 c -2.876779,0 -5.124058,-2.138 -5.124058,-4.875 l 0,-17.9999 c 0,-2.73695 2.247279,-4.875 5.124058,-4.875 z"
       inkscape:connector-curvature="0" />
    <path
       inkscape:connector-curvature="0"
       d="m 53.65508,43.769638 c -5.68882,0 -10.375001,4.68618 -10.375001,10.375 l 0,17.9999 c 0,5.6888 4.686181,10.375 10.375001,10.375 l 0.8125,0 c 5.688818,0 10.34375,-4.6862 10.34375,-10.375 l 0,-17.9999 c 0,-5.68882 -4.654932,-10.375 -10.34375,-10.375 l -0.8125,0 z m 0,5.5 0.8125,0 c 2.736953,0 4.84375,2.13805 4.84375,4.875 l 0,17.9999 c 0,2.737 -2.106797,4.875 -4.84375,4.875 l -0.8125,0 c -2.736953,0 -4.875002,-2.138 -4.875002,-4.875 l 0,-17.9999 c 0,-2.73695 2.138049,-4.875 4.875002,-4.875 z"
       style="font-size:medium;font-style:normal;font-variant:normal;font-weight:normal;font-stretch:normal;text-indent:0;text-align:start;text-decoration:none;line-height:normal;letter-spacing:normal;word-spacing:normal;text-transform:none;direction:ltr;block-progression:tb;writing-mode:lr-tb;text-anchor:start;baseline-shift:baseline;color:#000000;fill:#b2c7e4;fill-opacity:1;stroke:none;stroke-width:5.5;marker:none;visibility:visible;display:inline;overflow:visible;enable-background:accumulate;font-family:Sans;-inkscape-font-specification:Sans"
       id="path3968" />
    <rect
       style="fill:#b2c7e4;fill-opacity:1;stroke:none"
       id="rect3982"
       width="5.7647061"
       height="38.705879"
       x="69.7519"
       y="87.313248"
       ry="2.588237" />
    <rect
       ry="2.588237"
       y="44.766819"
       x="69.7519"
       height="38.705879"
       width="5.7647061"
       id="rect4011"
       style="fill:#b2c7e4;fill-opacity:1;stroke:none" />
  </g>
  <g
     inkscape:label="link shadow 2"
     id="g3950"
     inkscape:groupmode="layer"
     style="display:none"
     sodipodi:insensitive="true">
    <path
       sodipodi:nodetypes="ssssssssssssssssss"
       inkscape:connector-curvature="0"
       d="m 53.689449,87.581342 c -5.979452,0 -9.777703,4.507422 -9.777703,10.196242 l 0,17.999986 c 0,5.6888 3.704305,9.39184 9.683758,9.39184 l 0.854009,0 c 5.979452,0 10.684307,-3.79242 10.684307,-9.48122 l 0,-17.999985 c 0,-5.68882 -4.61091,-10.106863 -10.590362,-10.106863 z m -0.281836,4.069937 0.85401,0 c 2.87678,0 7.064058,3.121218 7.064058,5.858168 l 0,17.999993 c 0,2.737 -4.187278,5.05375 -7.064058,5.05375 l -0.85401,0 c -2.876779,0 -7.284795,-2.22737 -7.284795,-4.96437 l 0,-17.999994 c 0,-2.73695 4.408016,-5.947547 7.284795,-5.947547 z"
       style="font-size:medium;font-style:normal;font-variant:normal;font-weight:normal;font-stretch:normal;text-indent:0;text-align:start;text-decoration:none;line-height:normal;letter-spacing:normal;word-spacing:normal;text-transform:none;direction:ltr;block-progression:tb;writing-mode:lr-tb;text-anchor:start;baseline-shift:baseline;color:#000000;fill:#7ea1d1;fill-opacity:1;stroke:none;stroke-width:5.5;marker:none;visibility:visible;display:inline;overflow:visible;enable-background:accumulate;font-family:Sans;-inkscape-font-specification:Sans"
       id="path3954" />
    <path
       id="path3970"
       style="font-size:medium;font-style:normal;font-variant:normal;font-weight:normal;font-stretch:normal;text-indent:0;text-align:start;text-decoration:none;line-height:normal;letter-spacing:normal;word-spacing:normal;text-transform:none;direction:ltr;block-progression:tb;writing-mode:lr-tb;text-anchor:start;baseline-shift:baseline;color:#000000;fill:#7ea1d1;fill-opacity:1;stroke:none;stroke-width:5.5;marker:none;visibility:visible;display:inline;overflow:visible;enable-background:accumulate;font-family:Sans;-inkscape-font-specification:Sans"
       d="m 53.923217,44.03773 c -5.688819,0 -9.302454,4.507422 -9.302454,10.196242 l 0,17.99999 c 0,5.6888 3.524256,9.391832 9.213075,9.391832 l 0.8125,0 c 5.688818,0 10.164992,-3.792411 10.164992,-9.481211 l 0,-17.99999 c 0,-5.68882 -4.386795,-10.106863 -10.075613,-10.106863 z m -0.268137,4.069937 0.8125,0 c 2.736953,0 6.720707,3.121218 6.720707,5.858168 l 0,17.99999 c 0,2.737 -3.983754,5.053758 -6.720707,5.053758 l -0.8125,0 c -2.736953,0 -6.930716,-2.227379 -6.930716,-4.964379 l 0,-17.99999 c 0,-2.73695 4.193763,-5.947547 6.930716,-5.947547 z"
       inkscape:connector-curvature="0"
       sodipodi:nodetypes="ssssssssssssssssss" />
    <rect
       ry="2.5017002"
       y="87.960312"
       x="70.575432"
       height="37.411762"
       width="4.1176472"
       id="rect4002"
       style="fill:#7ea1d1;fill-opacity:1;stroke:none;display:inline" />
    <rect
       style="fill:#7ea1d1;fill-opacity:1;stroke:none;display:inline"
       id="rect4013"
       width="4.1176472"
       height="37.411762"
       x="70.575432"
       y="45.413879"
       ry="2.5017002" />
  </g>
  <g
     inkscape:groupmode="layer"
     id="layer3"
     inkscape:label="link shadow"
     style="display:none"
     sodipodi:insensitive="true">
    <path
       style="font-size:medium;font-style:normal;font-variant:normal;font-weight:normal;font-stretch:normal;text-indent:0;text-align:start;text-decoration:none;line-height:normal;letter-spacing:normal;word-spacing:normal;text-transform:none;direction:ltr;block-progression:tb;writing-mode:lr-tb;text-anchor:start;baseline-shift:baseline;color:#000000;fill:#3e6dae;fill-opacity:1;stroke:none;stroke-width:5.5;marker:none;visibility:visible;display:inline;overflow:visible;enable-background:accumulate;font-family:Sans;-inkscape-font-specification:Sans"
       d="m 53.324286,87.630417 c -1.056415,0.0581 -4.259506,0.261869 -4.232935,1.721561 0.04253,2.336693 4.593868,1.874241 6.872377,2.531014 1.256831,0.362278 3.534602,2.337737 4.615109,3.092474 0.912065,0.637079 2.268726,0.845195 1.921194,-0.490884 -0.52572,-2.021103 -4.088404,-6.854264 -9.175745,-6.854165 z"
       id="path3944"
       inkscape:connector-curvature="0"
       sodipodi:nodetypes="casssc" />
    <path
       sodipodi:nodetypes="casssc"
       inkscape:connector-curvature="0"
       id="path3974"
       d="m 53.575803,44.086805 c -1.005068,0.0581 -4.052472,0.261869 -4.027192,1.721561 0.04047,2.336693 4.370581,1.874241 6.538342,2.531014 1.195743,0.362278 3.362802,2.337737 4.390791,3.092474 0.867733,0.637079 2.158454,0.845195 1.827813,-0.490884 -0.500167,-2.021103 -3.889685,-6.854264 -8.729754,-6.854165 z"
       style="font-size:medium;font-style:normal;font-variant:normal;font-weight:normal;font-stretch:normal;text-indent:0;text-align:start;text-decoration:none;line-height:normal;letter-spacing:normal;word-spacing:normal;text-transform:none;direction:ltr;block-progression:tb;writing-mode:lr-tb;text-anchor:start;baseline-shift:baseline;color:#000000;fill:#3e6dae;fill-opacity:1;stroke:none;stroke-width:5.5;marker:none;visibility:visible;display:inline;overflow:visible;enable-background:accumulate;font-family:Sans;-inkscape-font-specification:Sans" />
    <path
       sodipodi:nodetypes="cssssc"
       inkscape:connector-curvature="0"
       id="path3965"
       d="m 54.352002,125.19603 c 1.406778,-0.50254 3.16217,-0.96954 2.247546,-2.666 -1.206039,-2.237 -4.048762,-1.81396 -5.704501,-2.53102 -0.577689,-0.25018 -2.482328,-1.95694 -2.571327,-3.42581 -0.168503,-2.78103 -4.77966,-2.34519 -4.373733,0.99089 0.251661,2.06826 2.219801,7.63204 10.402015,7.63194 z"
       style="font-size:medium;font-style:normal;font-variant:normal;font-weight:normal;font-stretch:normal;text-indent:0;text-align:start;text-decoration:none;line-height:normal;letter-spacing:normal;word-spacing:normal;text-transform:none;direction:ltr;block-progression:tb;writing-mode:lr-tb;text-anchor:start;baseline-shift:baseline;color:#000000;fill:#3e6dae;fill-opacity:1;stroke:none;stroke-width:5.5;marker:none;visibility:visible;display:inline;overflow:visible;enable-background:accumulate;font-family:Sans;-inkscape-font-specification:Sans" />
    <path
       style="fill:#3e6dae;fill-opacity:1;stroke:none;display:inline"
       d="m 72.62874,87.949862 c -1.140588,0 -2.0625,1.114058 -2.0625,2.5 0,0 0.05331,9.318019 0.05882,14.441178 0.02461,1.37478 1.747679,3.15809 2.713235,0.47059 1.763711,-2.2031 1.058823,-14.794121 1.058823,-14.794121 0.110279,-1.381548 -0.627794,-2.617647 -1.768382,-2.617647 z"
       id="rect4005"
       inkscape:connector-curvature="0"
       sodipodi:nodetypes="ssccss" />
    <path
       sodipodi:nodetypes="ssccss"
       inkscape:connector-curvature="0"
       id="path4015"
       d="m 72.62874,45.403432 c -1.140588,0 -2.0625,1.114058 -2.0625,2.5 0,0 0.05331,9.318019 0.05882,14.441176 0.02461,1.37478 1.747679,3.158096 2.713235,0.470589 1.763711,-2.203096 1.058823,-14.794118 1.058823,-14.794118 0.110279,-1.381548 -0.627794,-2.617647 -1.768382,-2.617647 z"
       style="fill:#3e6dae;fill-opacity:1;stroke:none;display:inline" />
  </g>
  <g
     inkscape:groupmode="layer"
     id="layer4"
     inkscape:label="link highlight"
     style="display:none"
     sodipodi:insensitive="true">
    <path
       style="font-size:medium;font-style:normal;font-variant:normal;font-weight:normal;font-stretch:normal;text-indent:0;text-align:start;text-decoration:none;line-height:normal;letter-spacing:normal;word-spacing:normal;text-transform:none;direction:ltr;block-progression:tb;writing-mode:lr-tb;text-anchor:start;baseline-shift:baseline;color:#000000;fill:#ffffff;fill-opacity:1;stroke:none;stroke-width:5.5;marker:none;visibility:visible;display:inline;overflow:visible;enable-background:accumulate;font-family:Sans;-inkscape-font-specification:Sans"
       d="m 56.226345,88.047779 c -1.8231,-0.353726 -2.699166,0.847094 -0.268612,1.197741 5.171317,0.746046 7.443021,5.520021 7.443021,9.654876 l 0,16.550344 c 0,2.71099 -0.0373,5.94749 -5.094907,8.20161 -3.163003,1.40972 -1.096616,1.36756 -0.469726,1.16678 3.286339,-1.05256 6.773385,-4.35381 6.773385,-9.31333 0,0 0.169981,-11.7496 0,-17.621062 0.06467,-5.319544 -3.943803,-8.975614 -8.383161,-9.836959 z"
       id="path3923"
       inkscape:connector-curvature="0"
       sodipodi:nodetypes="ssssssscs" />
    <path
       style="font-size:medium;font-style:normal;font-variant:normal;font-weight:normal;font-stretch:normal;text-indent:0;text-align:start;text-decoration:none;line-height:normal;letter-spacing:normal;word-spacing:normal;text-transform:none;direction:ltr;block-progression:tb;writing-mode:lr-tb;text-anchor:start;baseline-shift:baseline;color:#000000;fill:#ffffff;fill-opacity:1;stroke:none;stroke-width:5.5;marker:none;visibility:visible;display:inline;overflow:visible;enable-background:accumulate;font-family:Sans;-inkscape-font-specification:Sans"
       d="m 50.155104,92.31535 c -2.42032,0.351129 -4.15313,3.155578 -4.15313,4.936506 l 0,17.919204 c 0,1.77975 -0.108931,4.26231 1.616611,4.99225 0.524539,0.22189 3.001797,0.14865 1.587194,-0.63828 -1.462725,-0.8137 -1.866972,-2.50104 -1.866972,-4.21252 0,0 0,-12.19229 0,-18.288427 0,-2.312546 1.060173,-2.914888 2.148806,-3.728264 1.289224,-0.963248 1.396577,-1.086241 0.667491,-0.980469 z"
       id="path3936"
       inkscape:connector-curvature="0"
       sodipodi:nodetypes="sssasscss" />
    <path
       sodipodi:nodetypes="ssssssscs"
       inkscape:connector-curvature="0"
       id="path3976"
       d="m 56.336806,44.504167 c -1.734488,-0.353726 -2.567972,0.847094 -0.255556,1.197741 4.919963,0.746046 7.08125,5.520021 7.08125,9.654876 l 0,16.550342 c 0,2.710989 -0.03549,5.947497 -4.847267,8.201613 -3.009264,1.409715 -1.043314,1.36756 -0.446895,1.166778 3.126605,-1.052558 6.444162,-4.353813 6.444162,-9.313325 0,0 0.161719,-11.749604 0,-17.621066 0.06153,-5.319544 -3.752112,-8.975614 -7.975694,-9.836959 z"
       style="font-size:medium;font-style:normal;font-variant:normal;font-weight:normal;font-stretch:normal;text-indent:0;text-align:start;text-decoration:none;line-height:normal;letter-spacing:normal;word-spacing:normal;text-transform:none;direction:ltr;block-progression:tb;writing-mode:lr-tb;text-anchor:start;baseline-shift:baseline;color:#000000;fill:#ffffff;fill-opacity:1;stroke:none;stroke-width:5.5;marker:none;visibility:visible;display:inline;overflow:visible;enable-background:accumulate;font-family:Sans;-inkscape-font-specification:Sans" />
    <path
       sodipodi:nodetypes="sssasscss"
       inkscape:connector-curvature="0"
       id="path3978"
       d="m 50.56066,48.771738 c -2.30268,0.351129 -3.951266,3.155578 -3.951266,4.936506 l 0,17.919207 c 0,1.779746 -0.103636,4.262312 1.538035,4.992245 0.499044,0.221889 2.855894,0.148654 1.510048,-0.638278 -1.391628,-0.813703 -1.776227,-2.501043 -1.776227,-4.212523 0,0 0,-12.192283 0,-18.288424 0,-2.312546 1.008643,-2.914888 2.044363,-3.728264 1.22656,-0.963248 1.328696,-1.086241 0.635047,-0.980469 z"
       style="font-size:medium;font-style:normal;font-variant:normal;font-weight:normal;font-stretch:normal;text-indent:0;text-align:start;text-decoration:none;line-height:normal;letter-spacing:normal;word-spacing:normal;text-transform:none;direction:ltr;block-progression:tb;writing-mode:lr-tb;text-anchor:start;baseline-shift:baseline;color:#000000;fill:#ffffff;fill-opacity:1;stroke:none;stroke-width:5.5;marker:none;visibility:visible;display:inline;overflow:visible;enable-background:accumulate;font-family:Sans;-inkscape-font-specification:Sans" />
    <rect
       ry="2.588237"
       y="87.313248"
       x="69.7519"
       height="38.705879"
       width="5.7647061"
       id="rect3984"
       style="fill:#ff0000;fill-opacity:0;stroke:none;display:inline" />
    <path
       style="fill:#ffffff;fill-opacity:1;stroke:none;display:inline"
       d="m 73.34749,88.179641 0,37.095589 c 0.893686,-0.19469 1.568015,-1.22392 1.568015,-2.46104 l 0,-32.203527 c 0,-1.237118 -0.674329,-2.236338 -1.568015,-2.431022 z"
       id="rect3992"
       inkscape:connector-curvature="0" />
    <rect
       style="fill:#ff0000;fill-opacity:0;stroke:none;display:inline"
       id="rect4017"
       width="5.7647061"
       height="38.705879"
       x="69.7519"
       y="44.766819"
       ry="2.588237" />
    <path
       inkscape:connector-curvature="0"
       id="path4019"
       d="m 73.34749,45.633211 0,37.095589 c 0.893686,-0.194685 1.568015,-1.223916 1.568015,-2.461035 l 0,-32.203532 c 0,-1.237118 -0.674329,-2.236338 -1.568015,-2.431022 z"
       style="fill:#ffffff;fill-opacity:1;stroke:none;display:inline" />
  </g>
  <g
     inkscape:groupmode="layer"
     id="layer7"
     inkscape:label="openlink"
     style="display:inline">
    <g
       transform="matrix(1.2372273,0,0,1.290326,-2.7723691,-9.415497)"
       id="g4127">
      <path
         id="path4129"
         style="font-size:medium;font-style:normal;font-variant:normal;font-weight:normal;font-stretch:normal;text-indent:0;text-align:start;text-decoration:none;line-height:normal;letter-spacing:normal;word-spacing:normal;text-transform:none;direction:ltr;block-progression:tb;writing-mode:lr-tb;text-anchor:start;baseline-shift:baseline;color:#000000;fill:#b2c7e4;fill-opacity:1;stroke:none;stroke-width:5.5;marker:none;visibility:visible;display:inline;overflow:visible;enable-background:accumulate;font-family:Sans;-inkscape-font-specification:Sans"
         d="m 13.549966,31.808224 c -5.9794522,0 -10.9050442,4.68618 -10.9050442,10.375 l 0,17.999898 c 0,5.6888 4.925592,10.375 10.9050442,10.375 l 0.85401,0 c 5.979451,0 10.872195,-4.6862 10.872195,-10.375 l 0,-17.999898 c 0,-5.68882 -4.892744,-10.375 -10.872195,-10.375 l -0.85401,0 z m 0,5.5 0.85401,0 c 2.87678,0 5.09121,2.13805 5.09121,4.875 l 0,17.999898 c 0,2.737 -2.21443,4.875 -5.09121,4.875 l -0.85401,0 c -2.876779,0 -5.1240572,-2.138 -5.1240572,-4.875 l 0,-17.999898 c 0,-2.73695 2.2472782,-4.875 5.1240572,-4.875 z"
         inkscape:connector-curvature="0" />
      <path
         sodipodi:nodetypes="ssssssssssssssssss"
         inkscape:connector-curvature="0"
         d="m 13.831802,32.076316 c -5.9794522,0 -9.7777022,4.507422 -9.7777022,10.196242 l 0,17.999994 c 0,5.6888 3.704305,9.39183 9.6837572,9.39183 l 0.854009,0 c 5.979455,0 10.684305,-3.79241 10.684305,-9.48121 l 0,-17.999993 c 0,-5.68882 -4.61091,-10.106863 -10.59036,-10.106863 z m -0.281836,4.069937 0.85401,0 c 2.87678,0 7.064055,3.121218 7.064055,5.858168 l 0,17.999991 c 0,2.737 -4.187275,5.05376 -7.064055,5.05376 l -0.85401,0 c -2.876779,0 -7.2847952,-2.22738 -7.2847952,-4.96438 l 0,-17.999992 c 0,-2.73695 4.4080162,-5.947547 7.2847952,-5.947547 z"
         style="font-size:medium;font-style:normal;font-variant:normal;font-weight:normal;font-stretch:normal;text-indent:0;text-align:start;text-decoration:none;line-height:normal;letter-spacing:normal;word-spacing:normal;text-transform:none;direction:ltr;block-progression:tb;writing-mode:lr-tb;text-anchor:start;baseline-shift:baseline;color:#000000;fill:#7ea1d1;fill-opacity:1;stroke:none;stroke-width:5.5;marker:none;visibility:visible;display:inline;overflow:visible;enable-background:accumulate;font-family:Sans;-inkscape-font-specification:Sans"
         id="path4131" />
      <path
         style="font-size:medium;font-style:normal;font-variant:normal;font-weight:normal;font-stretch:normal;text-indent:0;text-align:start;text-decoration:none;line-height:normal;letter-spacing:normal;word-spacing:normal;text-transform:none;direction:ltr;block-progression:tb;writing-mode:lr-tb;text-anchor:start;baseline-shift:baseline;color:#000000;fill:#3e6dae;fill-opacity:1;stroke:none;stroke-width:5.5;marker:none;visibility:visible;display:inline;overflow:visible;enable-background:accumulate;font-family:Sans;-inkscape-font-specification:Sans"
         d="m 13.466639,32.125391 c -1.056415,0.0581 -4.2595062,0.261869 -4.2329342,1.721561 0.04254,2.336693 4.5938672,1.874241 6.8723762,2.531014 1.256831,0.362278 3.534602,2.337737 4.61511,3.092474 0.91206,0.637079 2.26872,0.845195 1.92119,-0.490884 -0.52572,-2.021103 -4.088401,-6.854264 -9.175742,-6.854165 z"
         id="path4133"
         inkscape:connector-curvature="0"
         sodipodi:nodetypes="casssc" />
      <path
         sodipodi:nodetypes="cssssc"
         inkscape:connector-curvature="0"
         id="path4135"
         d="m 14.494355,69.691002 c 1.406778,-0.50254 3.16217,-0.96954 2.247546,-2.666 -1.206039,-2.237 -4.048762,-1.81396 -5.704501,-2.53102 -0.577689,-0.25018 -2.4823282,-1.95694 -2.5713262,-3.4258 -0.168504,-2.78104 -4.77966,-2.3452 -4.373734,0.99088 0.251662,2.06826 2.219802,7.63204 10.4020152,7.63194 z"
         style="font-size:medium;font-style:normal;font-variant:normal;font-weight:normal;font-stretch:normal;text-indent:0;text-align:start;text-decoration:none;line-height:normal;letter-spacing:normal;word-spacing:normal;text-transform:none;direction:ltr;block-progression:tb;writing-mode:lr-tb;text-anchor:start;baseline-shift:baseline;color:#000000;fill:#3e6dae;fill-opacity:1;stroke:none;stroke-width:5.5;marker:none;visibility:visible;display:inline;overflow:visible;enable-background:accumulate;font-family:Sans;-inkscape-font-specification:Sans" />
      <path
         style="font-size:medium;font-style:normal;font-variant:normal;font-weight:normal;font-stretch:normal;text-indent:0;text-align:start;text-decoration:none;line-height:normal;letter-spacing:normal;word-spacing:normal;text-transform:none;direction:ltr;block-progression:tb;writing-mode:lr-tb;text-anchor:start;baseline-shift:baseline;color:#000000;fill:#ffffff;fill-opacity:1;stroke:none;stroke-width:5.5;marker:none;visibility:visible;display:inline;overflow:visible;enable-background:accumulate;font-family:Sans;-inkscape-font-specification:Sans"
         d="m 16.368698,32.542753 c -1.8231,-0.353726 -2.699166,0.847094 -0.268612,1.197741 5.171315,0.746046 7.443025,5.520021 7.443025,9.654876 l 0,16.550342 c 0,2.71099 -0.0373,5.9475 -5.094911,8.20161 -3.163003,1.40972 -1.096616,1.36756 -0.469726,1.16678 3.286337,-1.05256 6.773387,-4.35381 6.773387,-9.31332 0,0 0.16998,-11.74961 0,-17.62107 0.0647,-5.319544 -3.94381,-8.975614 -8.383163,-9.836959 z"
         id="path4137"
         inkscape:connector-curvature="0"
         sodipodi:nodetypes="ssssssscs" />
      <path
         style="font-size:medium;font-style:normal;font-variant:normal;font-weight:normal;font-stretch:normal;text-indent:0;text-align:start;text-decoration:none;line-height:normal;letter-spacing:normal;word-spacing:normal;text-transform:none;direction:ltr;block-progression:tb;writing-mode:lr-tb;text-anchor:start;baseline-shift:baseline;color:#000000;fill:#ffffff;fill-opacity:1;stroke:none;stroke-width:5.5;marker:none;visibility:visible;display:inline;overflow:visible;enable-background:accumulate;font-family:Sans;-inkscape-font-specification:Sans"
         d="M 10.297457,36.810324 C 7.8771368,37.161453 6.1443278,39.965902 6.1443278,41.74683 l 0,17.919202 c 0,1.77975 -0.108932,4.26232 1.61661,4.99225 0.52454,0.22189 3.0017972,0.14865 1.587194,-0.63828 -1.462724,-0.8137 -1.866972,-2.50104 -1.866972,-4.21252 0,0 0,-12.19228 0,-18.288425 0,-2.312546 1.060173,-2.914888 2.148806,-3.728264 1.2892242,-0.963248 1.3965772,-1.086241 0.6674912,-0.980469 z"
         id="path4139"
         inkscape:connector-curvature="0"
         sodipodi:nodetypes="sssasscss" />
    </g>
    <g
       id="g4155"
       transform="matrix(1.2372273,0,0,1.290326,-2.7723691,-66.042979)">
      <path
         inkscape:connector-curvature="0"
         d="m 13.549966,31.808224 c -5.9794522,0 -10.9050442,4.68618 -10.9050442,10.375 l 0,17.999898 c 0,5.6888 4.925592,10.375 10.9050442,10.375 l 0.85401,0 c 5.979451,0 10.872195,-4.6862 10.872195,-10.375 l 0,-17.999898 c 0,-5.68882 -4.892744,-10.375 -10.872195,-10.375 l -0.85401,0 z m 0,5.5 0.85401,0 c 2.87678,0 5.09121,2.13805 5.09121,4.875 l 0,17.999898 c 0,2.737 -2.21443,4.875 -5.09121,4.875 l -0.85401,0 c -2.876779,0 -5.1240572,-2.138 -5.1240572,-4.875 l 0,-17.999898 c 0,-2.73695 2.2472782,-4.875 5.1240572,-4.875 z"
         style="font-size:medium;font-style:normal;font-variant:normal;font-weight:normal;font-stretch:normal;text-indent:0;text-align:start;text-decoration:none;line-height:normal;letter-spacing:normal;word-spacing:normal;text-transform:none;direction:ltr;block-progression:tb;writing-mode:lr-tb;text-anchor:start;baseline-shift:baseline;color:#000000;fill:#b2c7e4;fill-opacity:1;stroke:none;stroke-width:5.5;marker:none;visibility:visible;display:inline;overflow:visible;enable-background:accumulate;font-family:Sans;-inkscape-font-specification:Sans"
         id="path4157" />
      <path
         id="path4159"
         style="font-size:medium;font-style:normal;font-variant:normal;font-weight:normal;font-stretch:normal;text-indent:0;text-align:start;text-decoration:none;line-height:normal;letter-spacing:normal;word-spacing:normal;text-transform:none;direction:ltr;block-progression:tb;writing-mode:lr-tb;text-anchor:start;baseline-shift:baseline;color:#000000;fill:#7ea1d1;fill-opacity:1;stroke:none;stroke-width:5.5;marker:none;visibility:visible;display:inline;overflow:visible;enable-background:accumulate;font-family:Sans;-inkscape-font-specification:Sans"
         d="m 13.831802,32.076316 c -5.9794522,0 -9.7777022,4.507422 -9.7777022,10.196242 l 0,17.999994 c 0,5.6888 3.704305,9.39183 9.6837572,9.39183 l 0.854009,0 c 5.979455,0 10.684305,-3.79241 10.684305,-9.48121 l 0,-17.999993 c 0,-5.68882 -4.61091,-10.106863 -10.59036,-10.106863 z m -0.281836,4.069937 0.85401,0 c 2.87678,0 7.064055,3.121218 7.064055,5.858168 l 0,17.999991 c 0,2.737 -4.187275,5.05376 -7.064055,5.05376 l -0.85401,0 c -2.876779,0 -7.2847952,-2.22738 -7.2847952,-4.96438 l 0,-17.999992 c 0,-2.73695 4.4080162,-5.947547 7.2847952,-5.947547 z"
         inkscape:connector-curvature="0"
         sodipodi:nodetypes="ssssssssssssssssss" />
      <path
         sodipodi:nodetypes="casssc"
         inkscape:connector-curvature="0"
         id="path4161"
         d="m 13.466639,32.125391 c -1.056415,0.0581 -4.2595062,0.261869 -4.2329342,1.721561 0.04254,2.336693 4.5938672,1.874241 6.8723762,2.531014 1.256831,0.362278 3.534602,2.337737 4.61511,3.092474 0.91206,0.637079 2.26872,0.845195 1.92119,-0.490884 -0.52572,-2.021103 -4.088401,-6.854264 -9.175742,-6.854165 z"
         style="font-size:medium;font-style:normal;font-variant:normal;font-weight:normal;font-stretch:normal;text-indent:0;text-align:start;text-decoration:none;line-height:normal;letter-spacing:normal;word-spacing:normal;text-transform:none;direction:ltr;block-progression:tb;writing-mode:lr-tb;text-anchor:start;baseline-shift:baseline;color:#000000;fill:#3e6dae;fill-opacity:1;stroke:none;stroke-width:5.5;marker:none;visibility:visible;display:inline;overflow:visible;enable-background:accumulate;font-family:Sans;-inkscape-font-specification:Sans" />
      <path
         style="font-size:medium;font-style:normal;font-variant:normal;font-weight:normal;font-stretch:normal;text-indent:0;text-align:start;text-decoration:none;line-height:normal;letter-spacing:normal;word-spacing:normal;text-transform:none;direction:ltr;block-progression:tb;writing-mode:lr-tb;text-anchor:start;baseline-shift:baseline;color:#000000;fill:#3e6dae;fill-opacity:1;stroke:none;stroke-width:5.5;marker:none;visibility:visible;display:inline;overflow:visible;enable-background:accumulate;font-family:Sans;-inkscape-font-specification:Sans"
         d="m 14.494355,69.691002 c 1.406778,-0.50254 3.16217,-0.96954 2.247546,-2.666 -1.206039,-2.237 -4.048762,-1.81396 -5.704501,-2.53102 -0.577689,-0.25018 -2.4823282,-1.95694 -2.5713262,-3.4258 -0.168504,-2.78104 -4.77966,-2.3452 -4.373734,0.99088 0.251662,2.06826 2.219802,7.63204 10.4020152,7.63194 z"
         id="path4163"
         inkscape:connector-curvature="0"
         sodipodi:nodetypes="cssssc" />
      <path
         sodipodi:nodetypes="ssssssscs"
         inkscape:connector-curvature="0"
         id="path4165"
         d="m 16.368698,32.542753 c -1.8231,-0.353726 -2.699166,0.847094 -0.268612,1.197741 5.171315,0.746046 7.443025,5.520021 7.443025,9.654876 l 0,16.550342 c 0,2.71099 -0.0373,5.9475 -5.094911,8.20161 -3.163003,1.40972 -1.096616,1.36756 -0.469726,1.16678 3.286337,-1.05256 6.773387,-4.35381 6.773387,-9.31332 0,0 0.16998,-11.74961 0,-17.62107 0.0647,-5.319544 -3.94381,-8.975614 -8.383163,-9.836959 z"
         style="font-size:medium;font-style:normal;font-variant:normal;font-weight:normal;font-stretch:normal;text-indent:0;text-align:start;text-decoration:none;line-height:normal;letter-spacing:normal;word-spacing:normal;text-transform:none;direction:ltr;block-progression:tb;writing-mode:lr-tb;text-anchor:start;baseline-shift:baseline;color:#000000;fill:#ffffff;fill-opacity:1;stroke:none;stroke-width:5.5;marker:none;visibility:visible;display:inline;overflow:visible;enable-background:accumulate;font-family:Sans;-inkscape-font-specification:Sans" />
      <path
         sodipodi:nodetypes="sssasscss"
         inkscape:connector-curvature="0"
         id="path4167"
         d="M 10.297457,36.810324 C 7.8771368,37.161453 6.1443278,39.965902 6.1443278,41.74683 l 0,17.919202 c 0,1.77975 -0.108932,4.26232 1.61661,4.99225 0.52454,0.22189 3.0017972,0.14865 1.587194,-0.63828 -1.462724,-0.8137 -1.866972,-2.50104 -1.866972,-4.21252 0,0 0,-12.19228 0,-18.288425 0,-2.312546 1.060173,-2.914888 2.148806,-3.728264 1.2892242,-0.963248 1.3965772,-1.086241 0.6674912,-0.980469 z"
         style="font-size:medium;font-style:normal;font-variant:normal;font-weight:normal;font-stretch:normal;text-indent:0;text-align:start;text-decoration:none;line-height:normal;letter-spacing:normal;word-spacing:normal;text-transform:none;direction:ltr;block-progression:tb;writing-mode:lr-tb;text-anchor:start;baseline-shift:baseline;color:#000000;fill:#ffffff;fill-opacity:1;stroke:none;stroke-width:5.5;marker:none;visibility:visible;display:inline;overflow:visible;enable-background:accumulate;font-family:Sans;-inkscape-font-specification:Sans" />
    </g>
  </g>
  <g
     style="display:none"
     inkscape:label="openlink bottom"
     id="g4282"
     inkscape:groupmode="layer">
    <g
       transform="matrix(1.2372273,0,0,1.290326,-2.7723691,49.957021)"
       id="g4298">
      <path
         id="path4300"
         style="font-size:medium;font-style:normal;font-variant:normal;font-weight:normal;font-stretch:normal;text-indent:0;text-align:start;text-decoration:none;line-height:normal;letter-spacing:normal;word-spacing:normal;text-transform:none;direction:ltr;block-progression:tb;writing-mode:lr-tb;text-anchor:start;baseline-shift:baseline;color:#000000;fill:#b2c7e4;fill-opacity:1;stroke:none;stroke-width:5.5;marker:none;visibility:visible;display:inline;overflow:visible;enable-background:accumulate;font-family:Sans;-inkscape-font-specification:Sans"
         d="m 13.549966,31.808224 c -5.9794522,0 -10.9050442,4.68618 -10.9050442,10.375 l 0,17.999898 c 0,5.6888 4.925592,10.375 10.9050442,10.375 l 0.85401,0 c 5.979451,0 10.872195,-4.6862 10.872195,-10.375 l 0,-17.999898 c 0,-5.68882 -4.892744,-10.375 -10.872195,-10.375 l -0.85401,0 z m 0,5.5 0.85401,0 c 2.87678,0 5.09121,2.13805 5.09121,4.875 l 0,17.999898 c 0,2.737 -2.21443,4.875 -5.09121,4.875 l -0.85401,0 c -2.876779,0 -5.1240572,-2.138 -5.1240572,-4.875 l 0,-17.999898 c 0,-2.73695 2.2472782,-4.875 5.1240572,-4.875 z"
         inkscape:connector-curvature="0" />
      <path
         sodipodi:nodetypes="ssssssssssssssssss"
         inkscape:connector-curvature="0"
         d="m 13.831802,32.076316 c -5.9794522,0 -9.7777022,4.507422 -9.7777022,10.196242 l 0,17.999994 c 0,5.6888 3.704305,9.39183 9.6837572,9.39183 l 0.854009,0 c 5.979455,0 10.684305,-3.79241 10.684305,-9.48121 l 0,-17.999993 c 0,-5.68882 -4.61091,-10.106863 -10.59036,-10.106863 z m -0.281836,4.069937 0.85401,0 c 2.87678,0 7.064055,3.121218 7.064055,5.858168 l 0,17.999991 c 0,2.737 -4.187275,5.05376 -7.064055,5.05376 l -0.85401,0 c -2.876779,0 -7.2847952,-2.22738 -7.2847952,-4.96438 l 0,-17.999992 c 0,-2.73695 4.4080162,-5.947547 7.2847952,-5.947547 z"
         style="font-size:medium;font-style:normal;font-variant:normal;font-weight:normal;font-stretch:normal;text-indent:0;text-align:start;text-decoration:none;line-height:normal;letter-spacing:normal;word-spacing:normal;text-transform:none;direction:ltr;block-progression:tb;writing-mode:lr-tb;text-anchor:start;baseline-shift:baseline;color:#000000;fill:#7ea1d1;fill-opacity:1;stroke:none;stroke-width:5.5;marker:none;visibility:visible;display:inline;overflow:visible;enable-background:accumulate;font-family:Sans;-inkscape-font-specification:Sans"
         id="path4302" />
      <path
         style="font-size:medium;font-style:normal;font-variant:normal;font-weight:normal;font-stretch:normal;text-indent:0;text-align:start;text-decoration:none;line-height:normal;letter-spacing:normal;word-spacing:normal;text-transform:none;direction:ltr;block-progression:tb;writing-mode:lr-tb;text-anchor:start;baseline-shift:baseline;color:#000000;fill:#3e6dae;fill-opacity:1;stroke:none;stroke-width:5.5;marker:none;visibility:visible;display:inline;overflow:visible;enable-background:accumulate;font-family:Sans;-inkscape-font-specification:Sans"
         d="m 13.466639,32.125391 c -1.056415,0.0581 -4.2595062,0.261869 -4.2329342,1.721561 0.04254,2.336693 4.5938672,1.874241 6.8723762,2.531014 1.256831,0.362278 3.534602,2.337737 4.61511,3.092474 0.91206,0.637079 2.26872,0.845195 1.92119,-0.490884 -0.52572,-2.021103 -4.088401,-6.854264 -9.175742,-6.854165 z"
         id="path4304"
         inkscape:connector-curvature="0"
         sodipodi:nodetypes="casssc" />
      <path
         sodipodi:nodetypes="cssssc"
         inkscape:connector-curvature="0"
         id="path4306"
         d="m 14.494355,69.691002 c 1.406778,-0.50254 3.16217,-0.96954 2.247546,-2.666 -1.206039,-2.237 -4.048762,-1.81396 -5.704501,-2.53102 -0.577689,-0.25018 -2.4823282,-1.95694 -2.5713262,-3.4258 -0.168504,-2.78104 -4.77966,-2.3452 -4.373734,0.99088 0.251662,2.06826 2.219802,7.63204 10.4020152,7.63194 z"
         style="font-size:medium;font-style:normal;font-variant:normal;font-weight:normal;font-stretch:normal;text-indent:0;text-align:start;text-decoration:none;line-height:normal;letter-spacing:normal;word-spacing:normal;text-transform:none;direction:ltr;block-progression:tb;writing-mode:lr-tb;text-anchor:start;baseline-shift:baseline;color:#000000;fill:#3e6dae;fill-opacity:1;stroke:none;stroke-width:5.5;marker:none;visibility:visible;display:inline;overflow:visible;enable-background:accumulate;font-family:Sans;-inkscape-font-specification:Sans" />
      <path
         style="font-size:medium;font-style:normal;font-variant:normal;font-weight:normal;font-stretch:normal;text-indent:0;text-align:start;text-decoration:none;line-height:normal;letter-spacing:normal;word-spacing:normal;text-transform:none;direction:ltr;block-progression:tb;writing-mode:lr-tb;text-anchor:start;baseline-shift:baseline;color:#000000;fill:#ffffff;fill-opacity:1;stroke:none;stroke-width:5.5;marker:none;visibility:visible;display:inline;overflow:visible;enable-background:accumulate;font-family:Sans;-inkscape-font-specification:Sans"
         d="m 16.368698,32.542753 c -1.8231,-0.353726 -2.699166,0.847094 -0.268612,1.197741 5.171315,0.746046 7.443025,5.520021 7.443025,9.654876 l 0,16.550342 c 0,2.71099 -0.0373,5.9475 -5.094911,8.20161 -3.163003,1.40972 -1.096616,1.36756 -0.469726,1.16678 3.286337,-1.05256 6.773387,-4.35381 6.773387,-9.31332 0,0 0.16998,-11.74961 0,-17.62107 0.0647,-5.319544 -3.94381,-8.975614 -8.383163,-9.836959 z"
         id="path4308"
         inkscape:connector-curvature="0"
         sodipodi:nodetypes="ssssssscs" />
      <path
         style="font-size:medium;font-style:normal;font-variant:normal;font-weight:normal;font-stretch:normal;text-indent:0;text-align:start;text-decoration:none;line-height:normal;letter-spacing:normal;word-spacing:normal;text-transform:none;direction:ltr;block-progression:tb;writing-mode:lr-tb;text-anchor:start;baseline-shift:baseline;color:#000000;fill:#ffffff;fill-opacity:1;stroke:none;stroke-width:5.5;marker:none;visibility:visible;display:inline;overflow:visible;enable-background:accumulate;font-family:Sans;-inkscape-font-specification:Sans"
         d="M 10.297457,36.810324 C 7.8771368,37.161453 6.1443278,39.965902 6.1443278,41.74683 l 0,17.919202 c 0,1.77975 -0.108932,4.26232 1.61661,4.99225 0.52454,0.22189 3.0017972,0.14865 1.587194,-0.63828 -1.462724,-0.8137 -1.866972,-2.50104 -1.866972,-4.21252 0,0 0,-12.19228 0,-18.288425 0,-2.312546 1.060173,-2.914888 2.148806,-3.728264 1.2892242,-0.963248 1.3965772,-1.086241 0.6674912,-0.980469 z"
         id="path4310"
         inkscape:connector-curvature="0"
         sodipodi:nodetypes="sssasscss" />
    </g>
  </g>
  <g
     inkscape:groupmode="layer"
     id="layer8"
     inkscape:label="closed link"
     style="display:inline">
    <g
       id="g4086"
       transform="matrix(1.3828869,0,0,1.1229996,37.712999,2.2732795)">
      <rect
         ry="2.588237"
         y="4.0753379"
         x="-19.668251"
         height="38.705879"
         width="5.7647061"
         id="rect3982-7"
         style="fill:#b2c7e4;fill-opacity:1;stroke:none;display:inline" />
      <rect
         style="fill:#7ea1d1;fill-opacity:1;stroke:none;display:inline"
         id="rect4002-7"
         width="4.1176472"
         height="37.411762"
         x="-18.844719"
         y="4.7223945"
         ry="2.5017002" />
      <path
         sodipodi:nodetypes="ssccss"
         inkscape:connector-curvature="0"
         id="rect4005-3"
         d="m -16.791411,4.7119477 c -1.140588,0 -2.0625,1.114058 -2.0625,2.5 0,0 0.05331,9.3180193 0.05882,14.4411763 0.02461,1.37478 1.747679,3.158095 2.713235,0.470589 1.763711,-2.203096 1.058823,-14.7941183 1.058823,-14.7941183 0.110279,-1.381548 -0.627794,-2.617647 -1.768382,-2.617647 z"
         style="fill:#3e6dae;fill-opacity:1;stroke:none;display:inline" />
      <rect
         style="fill:#ff0000;fill-opacity:0;stroke:none;display:inline"
         id="rect3984-4"
         width="5.7647061"
         height="38.705879"
         x="-19.668251"
         y="4.0753379"
         ry="2.588237" />
      <path
         inkscape:connector-curvature="0"
         id="rect3992-1"
         d="m -16.072661,4.9417267 0,37.0955923 c 0.893686,-0.19469 1.568015,-1.22392 1.568015,-2.46104 l 0,-32.2035303 c 0,-1.237118 -0.674329,-2.236338 -1.568015,-2.431022 z"
         style="fill:#ffffff;fill-opacity:1;stroke:none;display:inline" />
    </g>
    <g
       transform="matrix(1.3828869,0,0,1.1229996,37.712999,60.273279)"
       id="g4181">
      <rect
         style="fill:#b2c7e4;fill-opacity:1;stroke:none;display:inline"
         id="rect4183"
         width="5.7647061"
         height="38.705879"
         x="-19.668251"
         y="4.0753379"
         ry="2.588237" />
      <rect
         ry="2.5017002"
         y="4.7223945"
         x="-18.844719"
         height="37.411762"
         width="4.1176472"
         id="rect4185"
         style="fill:#7ea1d1;fill-opacity:1;stroke:none;display:inline" />
      <path
         style="fill:#3e6dae;fill-opacity:1;stroke:none;display:inline"
         d="m -16.791411,4.7119477 c -1.140588,0 -2.0625,1.114058 -2.0625,2.5 0,0 0.05331,9.3180193 0.05882,14.4411763 0.02461,1.37478 1.747679,3.158095 2.713235,0.470589 1.763711,-2.203096 1.058823,-14.7941183 1.058823,-14.7941183 0.110279,-1.381548 -0.627794,-2.617647 -1.768382,-2.617647 z"
         id="path4187"
         inkscape:connector-curvature="0"
         sodipodi:nodetypes="ssccss" />
      <rect
         ry="2.588237"
         y="4.0753379"
         x="-19.668251"
         height="38.705879"
         width="5.7647061"
         id="rect4189"
         style="fill:#ff0000;fill-opacity:0;stroke:none;display:inline" />
      <path
         style="fill:#ffffff;fill-opacity:1;stroke:none;display:inline"
         d="m -16.072661,4.9417267 0,37.0955923 c 0.893686,-0.19469 1.568015,-1.22392 1.568015,-2.46104 l 0,-32.2035303 c 0,-1.237118 -0.674329,-2.236338 -1.568015,-2.431022 z"
         id="path4191"
         inkscape:connector-curvature="0" />
    </g>
  </g>
</svg>
