<?xml version="1.0" encoding="UTF-8" standalone="no"?>
<!-- Created with Inkscape (http://www.inkscape.org/) -->

<svg
   xmlns:dc="http://purl.org/dc/elements/1.1/"
   xmlns:cc="http://creativecommons.org/ns#"
   xmlns:rdf="http://www.w3.org/1999/02/22-rdf-syntax-ns#"
   xmlns:svg="http://www.w3.org/2000/svg"
   xmlns="http://www.w3.org/2000/svg"
   xmlns:xlink="http://www.w3.org/1999/xlink"
   xmlns:sodipodi="http://sodipodi.sourceforge.net/DTD/sodipodi-0.dtd"
   xmlns:inkscape="http://www.inkscape.org/namespaces/inkscape"
   width="112"
   height="112"
   id="svg2"
   version="1.1"
   inkscape:version="0.48.3.1 r9886"
   sodipodi:docname="launcher_icon.svg"
   inkscape:export-filename="/home/tomas/development/coursera-android-capstone/projects/android-client/res/drawable-xxhdpi/ic_launcher.png"
   inkscape:export-xdpi="115.71429"
   inkscape:export-ydpi="115.71429">
  <defs
     id="defs4">
    <linearGradient
       id="linearGradient3960">
      <stop
         id="stop3962"
         offset="0"
         style="stop-color:#c7e3f5;stop-opacity:0.36725664" />
      <stop
         id="stop3964"
         offset="1"
         style="stop-color:#e2d6ff;stop-opacity:1" />
    </linearGradient>
    <linearGradient
       id="linearGradient3810">
      <stop
         style="stop-color:#c7e3f5;stop-opacity:1;"
         offset="0"
         id="stop3812" />
      <stop
         style="stop-color:#8c5fff;stop-opacity:1;"
         offset="1"
         id="stop3814" />
    </linearGradient>
    <linearGradient
       inkscape:collect="always"
       xlink:href="#linearGradient3810"
       id="linearGradient3816"
       x1="18.995409"
       y1="107.44418"
       x2="48.874603"
       y2="62.040516"
       gradientUnits="userSpaceOnUse" />
    <linearGradient
       inkscape:collect="always"
       xlink:href="#linearGradient3810"
       id="linearGradient3830"
       gradientUnits="userSpaceOnUse"
       x1="18.995409"
       y1="107.44418"
       x2="48.874603"
       y2="62.040516"
       gradientTransform="matrix(-0.94178948,0,0,1.0140237,108.9775,-1.5672402)" />
    <linearGradient
       inkscape:collect="always"
       xlink:href="#linearGradient3810"
       id="linearGradient3836"
       gradientUnits="userSpaceOnUse"
       x1="11.378778"
       y1="116.24776"
       x2="43.894497"
       y2="69.900848"
       gradientTransform="matrix(1.0165165,0,0,0.47355786,-0.88377498,2.7397687)" />
    <linearGradient
       inkscape:collect="always"
       xlink:href="#linearGradient3810"
       id="linearGradient3840"
       gradientUnits="userSpaceOnUse"
       gradientTransform="matrix(-1.054348,0,0,0.49118218,115.10507,2.5273231)"
       x1="18.995409"
       y1="107.44418"
       x2="48.874603"
       y2="62.040516" />
    <linearGradient
       inkscape:collect="always"
       xlink:href="#linearGradient3810"
       id="linearGradient3844"
       gradientUnits="userSpaceOnUse"
       x1="18.995409"
       y1="107.44418"
       x2="48.874603"
       y2="62.040516"
       gradientTransform="matrix(-0.99989155,0,0,1.0948279,112.24021,-11.246324)" />
    <linearGradient
       inkscape:collect="always"
       xlink:href="#linearGradient3810"
       id="linearGradient3850"
       gradientUnits="userSpaceOnUse"
       x1="6.3304296"
       y1="110.97063"
       x2="45.631134"
       y2="63.027924"
       gradientTransform="matrix(0.964014,0,0,1.0555439,2.016279,-10.53966)" />
    <linearGradient
       inkscape:collect="always"
       xlink:href="#linearGradient3810"
       id="linearGradient3854"
       gradientUnits="userSpaceOnUse"
       gradientTransform="matrix(-0.964014,0,0,1.0555439,110.23,-10.53966)"
       x1="6.3304296"
       y1="110.97063"
       x2="45.631134"
       y2="63.027924" />
    <linearGradient
       inkscape:collect="always"
       xlink:href="#linearGradient3810"
       id="linearGradient3858"
       gradientUnits="userSpaceOnUse"
       gradientTransform="matrix(-1.0165165,0,0,0.47355786,112.98997,2.7397687)"
       x1="11.378778"
       y1="116.24776"
       x2="43.894497"
       y2="69.900848" />
    <filter
       inkscape:collect="always"
       id="filter3907"
       x="-0.041786716"
       width="1.0835734"
       y="-0.12479107"
       height="1.2495821">
      <feGaussianBlur
         inkscape:collect="always"
         stdDeviation="1.6703804"
         id="feGaussianBlur3909" />
    </filter>
    <filter
       inkscape:collect="always"
       id="filter3928"
       x="-0.041240243"
       width="1.0824805"
       y="-0.11006944"
       height="1.2201389">
      <feGaussianBlur
         inkscape:collect="always"
         stdDeviation="1.8574219"
         id="feGaussianBlur3930" />
    </filter>
    <linearGradient
       inkscape:collect="always"
       xlink:href="#linearGradient3810"
       id="linearGradient3932"
       gradientUnits="userSpaceOnUse"
       gradientTransform="matrix(-0.65875081,0.77065141,-0.70382551,-0.72129702,131.61522,53.859279)"
       x1="17.345001"
       y1="78.489357"
       x2="39.187389"
       y2="56.186699" />
    <radialGradient
       inkscape:collect="always"
       xlink:href="#linearGradient3960"
       id="radialGradient3968"
       cx="56.250034"
       cy="25.578125"
       fx="56.250034"
       fy="25.578125"
       r="32.125244"
       gradientTransform="matrix(-0.97345447,0.47632477,-0.20928709,-0.42771546,116.36005,9.7249998)"
       gradientUnits="userSpaceOnUse" />
    <radialGradient
       inkscape:collect="always"
       xlink:href="#linearGradient3960"
       id="radialGradient4221"
       gradientUnits="userSpaceOnUse"
       gradientTransform="matrix(-0.97345447,0.47632477,-0.20928709,-0.42771546,116.36005,5.7249998)"
       cx="56.250034"
       cy="25.578125"
       fx="56.250034"
       fy="25.578125"
       r="32.125244" />
    <linearGradient
       inkscape:collect="always"
       xlink:href="#linearGradient3810"
       id="linearGradient4223"
       gradientUnits="userSpaceOnUse"
       gradientTransform="matrix(-1.0165165,0,0,0.47355786,112.98997,-1.2602313)"
       x1="11.378778"
       y1="116.24776"
       x2="43.894497"
       y2="69.900848" />
    <linearGradient
       inkscape:collect="always"
       xlink:href="#linearGradient3810"
       id="linearGradient4225"
       gradientUnits="userSpaceOnUse"
       gradientTransform="matrix(-0.65875081,0.77065141,-0.70382551,-0.72129702,131.61522,49.859279)"
       x1="17.345001"
       y1="78.489357"
       x2="39.187389"
       y2="56.186699" />
    <linearGradient
       inkscape:collect="always"
       xlink:href="#linearGradient3810"
       id="linearGradient4227"
       gradientUnits="userSpaceOnUse"
       gradientTransform="matrix(1.0165165,0,0,0.47355786,-0.88377498,-1.2602313)"
       x1="11.378778"
       y1="116.24776"
       x2="43.894497"
       y2="69.900848" />
    <linearGradient
       inkscape:collect="always"
       xlink:href="#linearGradient3810"
       id="linearGradient4229"
       gradientUnits="userSpaceOnUse"
       gradientTransform="matrix(-0.964014,0,0,1.0555439,110.23,-14.53966)"
       x1="6.3304296"
       y1="110.97063"
       x2="45.631134"
       y2="63.027924" />
    <linearGradient
       inkscape:collect="always"
       xlink:href="#linearGradient3810"
       id="linearGradient4231"
       gradientUnits="userSpaceOnUse"
       gradientTransform="matrix(0.964014,0,0,1.0555439,2.016279,-14.53966)"
       x1="6.3304296"
       y1="110.97063"
       x2="45.631134"
       y2="63.027924" />
  </defs>
  <sodipodi:namedview
     id="base"
     pagecolor="#006bff"
     bordercolor="#666666"
     borderopacity="1.0"
     inkscape:pageopacity="0"
     inkscape:pageshadow="2"
     inkscape:zoom="5.5196333"
     inkscape:cx="64.123022"
     inkscape:cy="47.822076"
     inkscape:document-units="px"
     inkscape:current-layer="layer9"
     showgrid="false"
     showguides="false"
     inkscape:guide-bbox="true"
     inkscape:window-width="1920"
     inkscape:window-height="1030"
     inkscape:window-x="1600"
     inkscape:window-y="1"
     inkscape:window-maximized="1"
     inkscape:snap-grids="false"
     inkscape:snap-to-guides="false">
    <sodipodi:guide
       orientation="0,1"
       position="5.0457373,97.963466"
       id="guide3773" />
    <sodipodi:guide
       orientation="0,1"
       position="14.185186,13.804376"
       id="guide3775" />
    <sodipodi:guide
       orientation="1,0"
       position="13.899578,61.215266"
       id="guide3777" />
    <sodipodi:guide
       orientation="1,0"
       position="97.963466,95.392996"
       id="guide3779" />
    <inkscape:grid
       type="xygrid"
       id="grid3838"
       empspacing="5"
       visible="true"
       enabled="true"
       snapvisiblegridlinesonly="true" />
    <sodipodi:guide
       position="0,0"
       orientation="0,112"
       id="guide7456" />
    <sodipodi:guide
       position="112,0"
       orientation="-112,0"
       id="guide7458" />
    <sodipodi:guide
       position="112,112"
       orientation="0,-112"
       id="guide7460" />
    <sodipodi:guide
       position="0,112"
       orientation="112,0"
       id="guide7462" />
    <sodipodi:guide
       position="0,0"
       orientation="0,112"
       id="guide7464" />
    <sodipodi:guide
       position="112,0"
       orientation="-112,0"
       id="guide7466" />
    <sodipodi:guide
       position="112,112"
       orientation="0,-112"
       id="guide7468" />
    <sodipodi:guide
       position="0,112"
       orientation="112,0"
       id="guide7470" />
  </sodipodi:namedview>
  <metadata
     id="metadata7">
    <rdf:RDF>
      <cc:Work
         rdf:about="">
        <dc:format>image/svg+xml</dc:format>
        <dc:type
           rdf:resource="http://purl.org/dc/dcmitype/StillImage" />
        <dc:title></dc:title>
      </cc:Work>
    </rdf:RDF>
  </metadata>
  <g
     inkscape:groupmode="layer"
     id="layer5"
     inkscape:label="launcher main shadow"
     style="display:inline"
     sodipodi:insensitive="true">
    <path
       style="opacity:0.41150441;fill:#000000;fill-opacity:1;stroke:#000000;stroke-width:0.30262241;stroke-linecap:butt;stroke-linejoin:miter;stroke-miterlimit:4;stroke-opacity:1;stroke-dasharray:none;filter:url(#filter3907)"
       d="M 20.251908,76.960257 8.15625,82.375204 56.09375,105.68778 56.03125,73.562704 z M 56.21875,73.562704 56.15625,105.68778 104.09375,82.375204 92.152515,74.18044 z"
       id="path3033"
       inkscape:connector-curvature="0"
       sodipodi:nodetypes="cccccccccc" />
  </g>
  <g
     inkscape:groupmode="layer"
     id="layer4"
     inkscape:label="launcher"
     style="display:inline"
     sodipodi:insensitive="true">
    <path
       sodipodi:nodetypes="ccccc"
       inkscape:connector-curvature="0"
       id="path3040"
       d="M 56.093909,103.68126 56.001063,48.257147 2.498286,32.607986 8.1555962,80.37053 z"
       style="fill:url(#linearGradient4231);fill-opacity:1;stroke:#dedbde;stroke-width:0.30262241;stroke-linecap:butt;stroke-linejoin:miter;stroke-miterlimit:4;stroke-opacity:1;stroke-dasharray:none" />
    <path
       style="fill:url(#linearGradient4229);fill-opacity:1;stroke:#dedbde;stroke-width:0.30262241;stroke-linecap:butt;stroke-linejoin:miter;stroke-miterlimit:4;stroke-opacity:1;stroke-dasharray:none"
       d="M 56.152369,103.68126 56.245214,48.257147 109.748,32.607986 104.09068,80.37053 z"
       id="path3852"
       inkscape:connector-curvature="0"
       sodipodi:nodetypes="ccccc" />
  </g>
  <g
     inkscape:groupmode="layer"
     id="layer7"
     inkscape:label="launcher lid shadow"
     style="display:inline"
     sodipodi:insensitive="true">
    <path
       style="opacity:0.4;fill:#000000;fill-opacity:1;stroke:#000000;stroke-width:0.20814453;stroke-linecap:butt;stroke-linejoin:miter;stroke-miterlimit:4;stroke-opacity:1;stroke-dasharray:none;display:inline;filter:url(#filter3928)"
       d="M 27.172777,27.270944 2.3125,36.643365 56,53.987115 c -0.04169,-24.581995 -0.205998,-22.744037 0.09375,0 L 109.6875,36.643365 83.531065,25.881036 c -29.02769,1.821391 -25.411126,1.160019 -56.358288,1.389908 z"
       id="path3916"
       inkscape:connector-curvature="0"
       sodipodi:nodetypes="ccccccc" />
  </g>
  <g
     inkscape:groupmode="layer"
     id="layer6"
     inkscape:label="launcher lid"
     style="display:inline"
     sodipodi:insensitive="true">
    <path
       style="fill:url(#linearGradient4227);fill-opacity:1;stroke:#dedbde;stroke-width:0.20814453;stroke-linecap:butt;stroke-linejoin:miter;stroke-miterlimit:4;stroke-opacity:1;stroke-dasharray:none;display:inline"
       d="m 56.001058,53.186124 5e-6,-20.078818 L 2.0104185,21.370212 2.2996541,35.83199 z"
       id="path3834"
       inkscape:connector-curvature="0"
       sodipodi:nodetypes="ccccc" />
    <path
       style="fill:url(#linearGradient4225);fill-opacity:1;stroke:#dedbde;stroke-width:0.30262241;stroke-linecap:butt;stroke-linejoin:miter;stroke-miterlimit:4;stroke-opacity:1;stroke-dasharray:none;display:inline"
       d="M 2.0104185,21.370212 56.001063,33.150832 109.97191,21.370212 56.001058,12.693145 z"
       id="path3846"
       inkscape:connector-curvature="0"
       sodipodi:nodetypes="ccccc" />
    <path
       sodipodi:nodetypes="ccccc"
       inkscape:connector-curvature="0"
       id="path3856"
       d="m 56.105136,53.186124 -6e-6,-20.078818 53.99064,-11.737094 -0.39331,14.461778 z"
       style="fill:url(#linearGradient4223);fill-opacity:1;stroke:#dedbde;stroke-width:0.20814453;stroke-linecap:butt;stroke-linejoin:miter;stroke-miterlimit:4;stroke-opacity:1;stroke-dasharray:none;display:inline" />
  </g>
  <g
     inkscape:groupmode="layer"
     id="layer11"
     inkscape:label="traced image"
     style="display:inline"
     sodipodi:insensitive="true">
    <path
       sodipodi:nodetypes="scccsccscccscssscccccccssccscccscsccsccccccccccccscccscsccscccscccssccsccss"
       inkscape:connector-curvature="0"
       id="path4084"
       d="m 23.94856,75.836887 c 1.33833,0.185173 6.640809,2.275452 13.427682,5.403739 0.934759,0.471243 4.513793,3.161121 -0.162499,2.063368 C 35.949446,83.136496 29.90806,80.916264 24.788149,78.043035 22.760457,76.585857 22.04874,75.574018 23.94856,75.836887 z M 7.8513463,43.039434 c -1.2469042,2.033456 0.9016442,5.5753 1.786067,4.221157 0.05576,-1.855298 0.6666037,-2.192393 3.6021687,-1.987847 1.512876,0.105401 5.956115,1.142592 7.596364,1.773205 12.920363,4.415016 13.621355,5.933036 18.459717,7.966173 4.62235,1.359952 6.565884,7.43415 9.217159,7.577382 C 50.146806,58.523903 36.613828,51.644608 24.720275,47.13938 16.149846,43.892939 8.9847172,40.614243 7.8513463,43.039434 z M 19.455407,77.251737 c -1.805656,-1.943662 -2.556118,-1.989861 -2.327788,-1.044009 2.234976,9.258297 23.004365,15.401307 27.770424,15.308052 2.524321,-0.04939 6.443226,-3.028114 6.601054,-10.078885 -0.55218,-3.303588 -0.66039,-6.905533 -1.663651,-9.825307 -0.757474,-2.147899 -0.408816,-2.972057 -3.239127,-8.138788 -1.565541,-2.76173 -1.036557,-1.195205 -1.545593,-2.61403 -1.281911,-1.786419 -1.865601,-3.36387 -6.0817,-5.044565 -6.237171,-1.974382 -7.688623,-0.284298 -7.983568,0.004 -2.941642,1.685339 1.817709,4.436536 4.341389,3.232159 0.714656,0.167286 1.58384,0.321003 1.931517,0.341594 1.069562,0.0634 4.346841,1.62133 5.618098,2.670787 1.963916,1.621266 3.744393,4.748178 4.699823,7.150027 0.790444,3.109605 1.229017,5.181608 0.43342,7.113569 -0.127933,0.465699 -0.681227,0.900548 -1.50724,1.276097 -1.622628,0.737733 -1.726978,1.606014 -1.215779,4.348926 0.20386,1.624271 0.463545,3.158486 -7.97e-4,4.49545 C 44.044348,91.161845 32.240106,85.958646 30.5247,85.243226 21.359554,80.630515 20.53006,78.40852 19.455407,77.251737 z m 1.205896,-3.772791 c -1.809278,-1.589139 -2.06673,-3.808438 -0.582178,-3.900028 1.924538,-0.118738 3.135997,-2.541465 4.911274,-2.810916 1.836509,0.140534 2.906802,3.90743 1.881702,3.42141 -0.758998,-0.384491 -1.821821,-0.594264 -2.096575,-0.229421 -0.426286,0.566064 -0.07156,1.119458 0.953688,1.258604 2.448154,0.45405 5.522825,1.345216 9.751991,3.471207 0.860405,0.456009 0.781043,-0.264005 0.198561,-0.749008 -1.627944,-2.022595 -0.460169,-4.178107 0.969425,-2.379801 3.68526,3.954231 3.228165,4.020106 2.856134,6.562529 -0.0256,2.904073 -5.09097,-0.591577 -7.153686,-1.905908 -1.194036,-0.444742 -3.228597,-1.042891 -5.19708,-1.694022 -1.447703,-0.600258 -2.314541,-1.27361 -2.709314,-1.974276 -0.793468,-0.852733 -1.192328,-0.627629 -1.278012,-0.29607 -0.797228,0.904288 -0.964224,2.383701 -2.50593,1.2257 z M 14.922732,55.376631 c -1.661501,1.898251 4.560932,10.506831 8.167896,5.387563 0.490868,-0.477494 -0.588668,-1.37644 -1.091525,-2.073085 -2.377995,-3.294426 -5.364136,-4.883878 -7.076371,-3.314478 z M 45.449171,75.099024 C 41.19399,73.729497 34.902355,69.252312 31.219443,64.360519 30.515707,63.427112 29.39119,61.086544 27.104921,63.135898 c -4.008363,3.592999 -15.614547,3.965655 -14.13114,-7.737419 0.04099,-0.323928 0.522003,-1.125721 0.889055,-1.618534 1.414996,-1.899808 5.292208,-0.645495 10.074102,2.885232 5.952723,4.493711 3.775193,4.36518 7.223883,3.464136 0.970021,-0.26288 4.47973,0.0357 6.146247,0.522882 0.802585,0.234622 3.165899,0.619296 7.256494,5.061021 3.82172,5.06506 3.690892,10.37425 0.885609,9.385808 z M 39.707144,64.077078 c -2.327876,-0.638422 -2.606098,0.895583 -3.357836,1.244102 -0.631052,0.292564 -0.412378,0.743661 0.0596,1.258656 2.685261,3.98308 7.085605,6.172377 8.374377,3.433937 0.655944,-2.139457 -3.298063,-5.159642 -5.076141,-5.936695 z M 10.550418,52.877538 c -0.41977,-1.109636 -0.477458,-3.430577 -0.103674,-4.17932 1.629566,-3.264265 5.183542,-2.39876 10.225922,0.884232 3.026354,2.029718 3.82998,3.169935 3.673534,3.114127 0.953412,0.998479 1.83686,2.836622 1.451729,2.923074 -0.329927,0.07405 -2.231238,-0.554913 -2.284015,-0.899725 -3.853735,-2.95032 -8.031872,-4.032931 -8.578367,-3.711831 -0.746089,-0.01748 -2.053557,0.389882 -2.81895,1.751378 -0.679449,1.208618 -1.140482,1.243374 -1.566179,0.118065 z"
       style="fill:#4f4aa1;fill-opacity:1" />
    <path
       sodipodi:nodetypes="sscscssssccccccccc"
       inkscape:connector-curvature="0"
       id="path4070"
       d="m 30.151715,79.978611 c -1.590864,-0.605525 -3.487951,-1.52756 -3.894849,-1.695091 -1.217906,-0.501446 -1.255248,-1.283821 -0.02071,-0.799468 0.626847,0.245941 2.82722,1.010352 5.17473,1.938781 2.758099,1.090812 6.050686,2.324292 6.249547,2.551346 0.805147,0.919335 -2.515866,-0.09513 -7.508717,-1.995568 z m 5.63802,-4.952568 c 2.270105,1.45803 0.778246,2.667205 -0.441477,1.904559 -1.995872,-1.247939 -1.793985,-3.340341 0.441477,-1.904559 z m -6.672614,-2.321382 c 1.067893,0.439785 1.364607,2.062485 0.358789,1.880569 -3.41605,-0.818333 -1.986036,-3.064214 -0.358789,-1.880569 z M 18.041152,60.666044 c -2.546318,-2.331723 -1.487536,-4.96263 1.058522,-3.241588 3.149445,2.478513 1.065605,4.707834 -1.058522,3.241588 z m 20.787125,5.059885 c 2.207494,-1.390887 4.7226,2.388235 3.824143,3.963198 -1.914927,0.783562 -4.532052,-2.232359 -3.824143,-3.963198 z"
       style="fill:#2e2c2c" />
    <g
       inkscape:groupmode="layer"
       id="layer12"
       inkscape:label="copy of trace"
       style="display:none"
       sodipodi:insensitive="true">
      <g
         style="display:inline"
         transform="matrix(0.2335208,0,0,0.2335208,58.42117,46.274845)"
         id="g4113">
        <path
           sodipodi:nodetypes="scccsccscccscssscccccccssccscccscsccsccccccccccccsccscccccccscsccscccscccssccsccss"
           inkscape:connector-curvature="0"
           id="path4115"
           d="m 77.161356,106.65806 c 5.228146,-1.50901 25.113414,-1.75006 50.288804,-0.14328 3.44275,0.3921 16.08349,5.63885 -1.90897,9.00522 -4.94347,1.45695 -27.69833,2.41394 -46.376698,-0.96916 -7.202364,-2.69015 -9.424724,-5.75068 -2.003136,-7.89278 z M 32.952289,-4.4866631 C 26.733743,6.2493427 33.144997,17.549485 37.501916,10.307429 38.857784,2.365041 41.501579,-0.106893 53.092441,-4.269632 59.065924,-6.414946 76.16527,-9.6383615 82.326267,-9.7805302 131.19434,-13.236647 133.06469,-8.0168779 151.13258,-7.7046815 168.74959,-9.8697049 172.79571,12.492013 183.28943,8.5568704 192.29417,-11.436953 142.48649,-17.354119 97.771515,-16.038198 65.550148,-15.089953 38.957017,-16.685039 32.952289,-4.4866631 z M 58.364948,120.33767 c -6.019046,-5.128 -8.985913,-4.03805 -8.652432,-0.42869 3.264213,35.32953 82.402104,25.73855 101.480364,17.18113 10.10471,-4.53239 27.56462,-23.84279 32.50157,-53.93395 -0.18571,-13.0266 1.58272,-28.075494 -0.6377,-38.706194 -1.711,-7.787067 0.18394,-11.869955 -7.95564,-28.874783 -4.56102,-8.9992226 -3.40678,-3.279705 -4.57163,-8.4086957 -4.02484,-5.3599843 -5.39073,-11.032023 -21.19047,-10.9193575 -23.68641,2.3320913 -30.51157,11.9663603 -31.86477,13.6905782 -12.76958,12.166312 4.54434,15.650826 15.35203,6.234586 2.75,-0.516494 6.125,-1.355037 7.5,-1.86343 4.2299,-1.563965 16.35779,-0.58767 20.79029,1.673618 6.8476,3.493388 12.04335,13.669002 14.38926,22.191088 1.25511,11.798075 1.73974,19.81034 -2.61566,29.344115 -0.79506,2.188768 -3.26888,4.975578 -6.7949,7.978685 -6.92655,5.899337 -7.87341,9.750408 -7.50876,20.47585 -0.1786,6.52061 -0.0794,12.56471 -2.74929,19.01462 -7.83523,22.06848 -51.7674,20.27941 -58.176545,20.19161 -33.76028,-3.81172 -35.713443,-11.78882 -39.295717,-14.84078 z m 7.117373,-18.02219 c -6.25006,-3.622358 -5.921862,-12.567811 0.05892,-15.497838 7.753345,-3.798419 14.068221,-16.120119 21.317931,-20.300323 7.24365,-2.551102 9.214118,11.547661 5.419844,11.247796 -2.794285,-0.326217 -6.907856,0.606893 -8.227271,2.620577 -2.047085,3.124248 -0.969431,4.857253 3.037326,3.689777 9.493193,-2.272661 21.219799,-3.769627 36.799669,-2.021315 3.15531,0.45502 3.27841,-2.45432 1.25,-3.507972 -5.26158,-5.766216 0.71572,-16.88292 5.3227,-11.725614 12.29234,10.412329 10.42784,11.473823 7.38999,22.864054 -1.87615,12.326458 -19.95664,6.217453 -27.38604,4.191451 -4.49371,0.16406 -12.248239,1.118886 -19.706677,1.736452 -5.411097,-0.05922 -8.459317,-1.422457 -9.606838,-3.709743 -2.645822,-2.247587 -4.375173,-0.612377 -4.919677,0.93669 -3.734122,5.19007 -5.304324,11.733188 -10.749877,9.476008 z M 53.637778,35.581412 C 45.847174,46.455665 65.422184,72.207786 82.944709,44.378349 85.195443,41.518087 81.436159,39.565008 79.85482,37.479841 72.376704,27.619137 61.429983,26.011108 53.637778,35.581412 z m 12.900984,-2.90496 c 6.216409,0.782787 9.825367,3.290128 11.263616,8.621922 1.213922,4.500184 -1.771652,11.171464 -9.080531,13.465428 -17.896213,2.24004 -16.5297,-23.85873 -2.183085,-22.08735 z m 90.584528,3.472107 c 9.42168,6.830691 0.52844,25.022576 -16.49366,15.411104 -10.19981,-9.171153 2.45679,-25.914419 16.49366,-15.411104 z m 6.29753,30.563856 c -16.14579,1.495668 -38.5207,-6.664425 -50.23095,-21.046129 -2.23842,-2.742478 -5.29659,-10.715782 -15.672938,1.867623 -18.192172,22.061664 -64.739984,43.516129 -51.670741,-8.52206 0.361477,-1.44024 2.770968,-5.655222 4.536913,-8.368214 6.807756,-10.458646 21.515463,-11.794251 38.443163,-5.051358 21.012213,8.810452 12.400233,11.99637 26.714333,2.278761 4.03193,-2.773226 17.85675,-7.521594 24.2102,-8.315406 3.05979,-0.382295 12.25677,-2.803069 25.86901,8.976842 12.15839,14.876794 8.39307,37.555791 -2.19899,38.179941 z M 147.23735,29.930288 c -8.90054,1.286868 -10.94799,8.251379 -14.16107,11.012951 -2.69724,2.318209 -2.10007,3.851566 -0.531,5.221333 8.28373,12.247072 24.5081,13.969949 31.32439,0.180542 3.92478,-10.172167 -10.0107,-16.1737 -16.63232,-16.414826 z M 37.71452,32.500257 C 36.717061,28.526063 37.904606,18.808581 39.853751,15.00162 48.351356,-1.5954306 62.006534,-4.021846 80.125168,1.2271112 90.963435,4.6283453 93.474179,8.074434 92.883901,8.106345 c 3.195118,2.590072 5.598102,8.85128 4.008235,9.876547 -1.361971,0.878302 -8.565869,1.474551 -8.565869,0.106578 -13.57798,-5.877774 -29.591558,-3.300573 -31.968765,-1.006496 -2.966959,1.204006 -8.433887,5.166186 -12.32025,12.235477 -3.449975,6.275503 -5.311186,7.212125 -6.322732,3.181806 z"
           style="fill:#4e59a2;fill-opacity:1" />
        <path
           sodipodi:nodetypes="sscscssssccccccccc"
           inkscape:connector-curvature="0"
           id="path4117"
           d="m 99.37318,113.65391 c -5.943705,-0.0823 -12.909353,-1.02613 -14.421853,-1.1007 -4.527137,-0.22321 -4.197407,-3.47404 0.406175,-3.34904 2.3375,0.0635 10.603076,-0.13188 19.352398,0.13718 10.27961,0.31612 22.59327,0.40285 23.24378,1.05332 2.63377,2.63377 -9.9265,3.51767 -28.5805,3.25924 z m 25.40071,-29.731252 c 8.11861,2.629594 1.45929,10.068206 -2.9155,8.7431 -7.15861,-2.168312 -5.07922,-11.332567 2.9155,-8.7431 z M 99.710619,84.50115 c 3.969451,0.196157 4.155761,6.596964 0.275139,7.394732 C 86.928514,93.757359 93.97568,82.030416 99.710619,84.50115 z M 63.107845,50.842034 c -8.681103,-5.894456 -2.872031,-18.671428 6.181082,-15.35941 10.985031,5.575563 1.353173,18.251201 -6.181082,15.35941 z M 142.51392,39.853972 c 9.61043,-9.322193 17.28349,2.742594 12.75574,10.803702 -8.07834,6.297691 -16.6225,-2.380213 -12.75574,-10.803702 z"
           style="fill:#2e2c2c" />
      </g>
    </g>
    <g
       inkscape:groupmode="layer"
       id="layer13"
       inkscape:label="right trace"
       style="display:inline"
       sodipodi:insensitive="true">
      <g
         id="g4129"
         transform="matrix(0.27755513,-0.0982011,-0.02060548,0.24800398,53.265929,62.710185)"
         style="display:inline">
        <path
           style="fill:#4f4aa1;fill-opacity:1"
           d="m 77.161356,106.65806 c 5.228146,-1.50901 25.113414,-1.75006 50.288804,-0.14328 3.44275,0.3921 16.08349,5.63885 -1.90897,9.00522 -4.94347,1.45695 -27.69833,2.41394 -46.376698,-0.96916 -7.202364,-2.69015 -9.424724,-5.75068 -2.003136,-7.89278 z M 32.952289,-4.4866631 C 26.733743,6.2493427 33.144997,17.549485 37.501916,10.307429 38.857784,2.365041 41.501579,-0.106893 53.092441,-4.269632 59.065924,-6.414946 76.16527,-9.6383615 82.326267,-9.7805302 131.19434,-13.236647 133.06469,-8.0168779 151.13258,-7.7046815 168.74959,-9.8697049 172.79571,12.492013 183.28943,8.5568704 192.29417,-11.436953 142.48649,-17.354119 97.771515,-16.038198 65.550148,-15.089953 38.957017,-16.685039 32.952289,-4.4866631 z M 58.364948,120.33767 c -6.019046,-5.128 -8.985913,-4.03805 -8.652432,-0.42869 3.264213,35.32953 82.402104,25.73855 101.480364,17.18113 10.10471,-4.53239 11.9138,-14.35051 17.49221,-42.095747 12.41208,-6.992339 16.59208,-39.913697 14.37166,-50.544397 -1.711,-7.787067 0.18394,-11.869955 -7.95564,-28.874783 -4.56102,-8.9992226 -3.40678,-3.279705 -4.57163,-8.4086957 -4.02484,-5.3599843 -5.39073,-11.032023 -21.19047,-10.9193575 -23.68641,2.3320913 -30.51157,11.9663603 -31.86477,13.6905782 -12.76958,12.166312 4.54434,15.650826 15.35203,6.234586 2.75,-0.516494 6.125,-1.355037 7.5,-1.86343 4.2299,-1.563965 16.35779,-0.58767 20.79029,1.673618 6.8476,3.493388 12.04335,13.669002 14.38926,22.191088 1.25511,11.798075 1.73974,19.81034 -2.61566,29.344115 -0.79506,2.188768 -3.26888,4.975578 -6.7949,7.978685 -6.92655,5.899337 -7.87341,9.750408 -7.50876,20.47585 -0.1786,6.52061 -0.0794,12.56471 -2.74929,19.01462 -7.83523,22.06848 -51.7674,20.27941 -58.176545,20.19161 -33.76028,-3.81172 -35.713443,-11.78882 -39.295717,-14.84078 z M 86.859172,66.517319 c 7.24365,-2.551102 9.214118,11.547661 5.419844,11.247796 -2.794285,-0.326217 -6.907856,0.606893 -8.227271,2.620577 -2.047085,3.124248 -0.969431,4.857253 3.037326,3.689777 9.493193,-2.272661 21.219799,-3.769627 36.799669,-2.021315 11.05694,1.866881 1.9056,-18.085176 10.74434,-9.3979 8.03926,9.77422 2.9246,11.117704 3.17835,16.489546 -1.87615,12.32646 -19.91664,6.756275 -27.34604,4.730273 -4.49371,0.16406 -12.248239,1.118886 -19.706677,1.736452 -5.411097,-0.05922 -8.459317,-1.422457 -9.606838,-3.709743 C 69.638958,77.161339 74.398563,75.099977 86.859172,66.517319 z M 53.637778,35.581412 C 45.847174,46.455665 65.422184,72.207786 82.944709,44.378349 85.195443,41.518087 81.436159,39.565008 79.85482,37.479841 72.376704,27.619137 61.429983,26.011108 53.637778,35.581412 z m 15.084069,19.18239 c -168.31824,36.728391 -84.15912,18.364195 0,0 z M 157.12329,36.148559 c -227.252536,49.138553 -113.626268,24.569276 0,0 z m 6.29753,30.563856 c -16.14579,1.495668 -38.5207,-6.664425 -50.23095,-21.046129 -2.23842,-2.742478 -5.29659,-10.715782 -15.672938,1.867623 -18.192172,22.061664 -64.739984,43.516129 -51.670741,-8.52206 0.361477,-1.44024 2.770968,-5.655222 4.536913,-8.368214 6.807756,-10.458646 21.515463,-11.794251 38.443163,-5.051358 21.012213,8.810452 12.400233,11.99637 26.714333,2.278761 4.03193,-2.773226 17.85675,-7.521594 24.2102,-8.315406 3.05979,-0.382295 12.25677,-2.803069 25.86901,8.976842 12.15839,14.876794 8.39307,37.555791 -2.19899,38.179941 z M 147.23735,29.930288 c -38.76927,12.494437 5.80781,36.394872 16.63232,16.414826 3.92478,-10.172167 -10.0107,-16.1737 -16.63232,-16.414826 z M 37.71452,32.500257 C 36.717061,28.526063 37.904606,18.808581 39.853751,15.00162 48.351356,-1.5954306 62.006534,-4.021846 80.125168,1.2271112 90.963435,4.6283453 93.474179,8.074434 92.883901,8.106345 c 3.195118,2.590072 5.598102,8.85128 4.008235,9.876547 -1.361971,0.878302 -8.565869,1.474551 -8.565869,0.106578 -13.57798,-5.877774 -29.591558,-3.300573 -31.968765,-1.006496 -2.966959,1.204006 -8.433887,5.166186 -12.32025,12.235477 -3.449975,6.275503 -5.311186,7.212125 -6.322732,3.181806 z"
           id="path4131"
           inkscape:connector-curvature="0"
           sodipodi:nodetypes="scccsccscccscssscccccccssccscccsccsccccccccccscccccccscsccscccccssccsccss" />
        <path
           style="fill:#2e2c2c"
           d="m 99.37318,113.65391 c -5.943705,-0.0823 -12.909353,-1.02613 -14.421853,-1.1007 -4.527137,-0.22321 -4.197407,-3.47404 0.406175,-3.34904 2.3375,0.0635 10.603076,-0.13188 19.352398,0.13718 10.27961,0.31612 22.59327,0.40285 23.24378,1.05332 2.63377,2.63377 -9.9265,3.51767 -28.5805,3.25924 z m 25.40071,-29.731252 c 8.11861,2.629594 1.45929,10.068206 -2.9155,8.7431 -7.15861,-2.168312 -5.07922,-11.332567 2.9155,-8.7431 z M 99.710619,84.50115 c 3.969451,0.196157 4.155761,6.596964 0.275139,7.394732 C 86.928514,93.757359 93.97568,82.030416 99.710619,84.50115 z M 63.107845,50.842034 c -8.681103,-5.894456 -2.872031,-18.671428 6.181082,-15.35941 10.985031,5.575563 1.353173,18.251201 -6.181082,15.35941 z M 142.51392,39.853972 c 9.61043,-9.322193 17.28349,2.742594 12.75574,10.803702 -8.07834,6.297691 -16.6225,-2.380213 -12.75574,-10.803702 z"
           id="path4133"
           inkscape:connector-curvature="0"
           sodipodi:nodetypes="sscscssssccccccccc" />
      </g>
    </g>
  </g>
  <g
     inkscape:groupmode="layer"
     id="layer8"
     inkscape:label="launcher ribbon"
     style="display:inline"
     sodipodi:insensitive="true">
    <path
       style="fill:#c22ac5;fill-opacity:1;stroke:none"
       d="m 35.46875,15.6875 -4.5625,0.78125 c 7.428101,1.489062 14.001938,2.832611 20.625,4.1875 -8.031675,1.540881 -16.598149,3.224688 -27.40625,5.4375 -0.114214,5.704003 -0.348022,14.329405 -0.267745,16.919755 1.466875,0.68131 2.619156,0.692849 4.035489,1.236495 0.116629,-4.804072 0.389404,-9.067525 0.732256,-16.8125 9.348776,-1.922197 18.483519,-3.810269 27.9375,-5.75 9.23838,1.896195 18.158957,3.742944 27.3125,5.625 0.342852,7.744975 0.414621,12.008428 0.53125,16.8125 1.118037,-0.307003 3.472725,-0.997853 4.4375,-1.4375 C 88.622519,34.167502 88.489214,31.672753 88.375,25.96875 77.834331,23.810691 69.455324,22.166183 61.59375,20.65625 c 6.438652,-1.316551 12.796859,-2.618534 20,-4.0625 l -4.5625,-0.78125 c -7.328889,1.412378 -13.767756,2.636078 -20.4375,3.90625 -6.906534,-1.316295 -13.549995,-2.571442 -21.125,-4.03125 z"
       id="rect3935"
       inkscape:connector-curvature="0"
       sodipodi:nodetypes="ccccccccccccccccc" />
  </g>
  <g
     inkscape:groupmode="layer"
     id="layer14"
     inkscape:label="ribbon bkp"
     style="display:inline"
     sodipodi:insensitive="true">
    <path
       sodipodi:nodetypes="ccccccccccccccccccccc"
       inkscape:connector-curvature="0"
       id="path4139"
       d="m 35.46875,15.6875 -4.5625,0.78125 c 7.428101,1.489062 14.001938,2.832611 20.625,4.1875 -8.031675,1.540881 -16.598149,3.224688 -27.40625,5.4375 -0.114214,5.704003 -0.247519,8.198752 -0.46875,16.71875 0.328471,6.138497 1.480916,33.502794 2.771943,46.678193 l 3.9375,1.875 L 28.09375,44.25 c 0.116629,-4.804072 0.188398,-9.067525 0.53125,-16.8125 9.348776,-1.922197 18.483519,-3.810269 27.9375,-5.75 9.23838,1.896195 18.158957,3.742944 27.3125,5.625 0.342852,7.744975 0.414621,12.008428 0.53125,16.8125 l -2.94348,47.518615 3.9375,-1.875 C 86.691297,76.593216 88.515279,48.825997 88.84375,42.6875 88.622519,34.167502 88.489214,31.672753 88.375,25.96875 77.834331,23.810691 69.455324,22.166183 61.59375,20.65625 c 6.438652,-1.316551 12.796859,-2.618534 20,-4.0625 l -4.5625,-0.78125 c -7.328889,1.412378 -13.767756,2.636078 -20.4375,3.90625 -6.906534,-1.316295 -13.549995,-2.571442 -21.125,-4.03125 z"
       style="fill:#c22ac5;fill-opacity:1;stroke:none;display:inline" />
  </g>
  <g
     inkscape:groupmode="layer"
     id="layer9"
     inkscape:label="launcher ribbon light"
     style="display:inline"
     sodipodi:insensitive="true">
    <path
       style="opacity:0.340708;fill:url(#radialGradient4221);fill-opacity:1;stroke:none"
       d="m 35.722911,15.666367 -4.75,0.869942 c 7.125003,1.429942 14.157089,2.810428 20.558339,4.119941 -8.031675,1.540881 -16.598149,3.224688 -27.40625,5.4375 -7.32e-4,0.03654 7.33e-4,0.05747 0,0.09375 l 5.09375,1.125 c 9.141227,-1.879924 18.090879,-3.726532 27.34375,-5.625 9.047504,1.857017 17.794778,3.658223 26.75,5.5 l 5.0625,-1.09375 c -9.78e-4,-0.04826 9.76e-4,-0.07628 0,-0.125 -10.540669,-2.158059 -18.919676,-3.802567 -26.78125,-5.3125 6.247229,-1.277409 12.819979,-2.721904 19.761015,-4.114883 L 77.168163,15.880059 C 70.170731,17.227369 63.017956,18.495338 56.59375,19.71875 49.97264,18.456853 42.913009,17.050064 35.722911,15.666367 z"
       id="path3944"
       inkscape:connector-curvature="0"
       sodipodi:nodetypes="ccccccccccccccc" />
  </g>
</svg>
