<?xml version="1.0" encoding="UTF-8" standalone="no"?>
<!-- Created with Inkscape (http://www.inkscape.org/) -->

<svg
   xmlns:dc="http://purl.org/dc/elements/1.1/"
   xmlns:cc="http://creativecommons.org/ns#"
   xmlns:rdf="http://www.w3.org/1999/02/22-rdf-syntax-ns#"
   xmlns:svg="http://www.w3.org/2000/svg"
   xmlns="http://www.w3.org/2000/svg"
   xmlns:sodipodi="http://sodipodi.sourceforge.net/DTD/sodipodi-0.dtd"
   xmlns:inkscape="http://www.inkscape.org/namespaces/inkscape"
   width="200"
   height="200"
   id="svg2"
   version="1.1"
   inkscape:version="0.48.3.1 r9886"
   inkscape:export-filename="/home/tomas/development/coursera-android-capstone/projects/android-client/res/drawable/giver.png"
   inkscape:export-xdpi="45"
   inkscape:export-ydpi="45"
   sodipodi:docname="picture backgrd.svg">
  <defs
     id="defs4" />
  <sodipodi:namedview
     id="base"
     pagecolor="#ffffff"
     bordercolor="#666666"
     borderopacity="1.0"
     inkscape:pageopacity="0"
     inkscape:pageshadow="2"
     inkscape:zoom="2.8487719"
     inkscape:cx="91.960121"
     inkscape:cy="130.92255"
     inkscape:document-units="px"
     inkscape:current-layer="layer2"
     showgrid="false"
     inkscape:window-width="1920"
     inkscape:window-height="1030"
     inkscape:window-x="1600"
     inkscape:window-y="1"
     inkscape:window-maximized="1"
     inkscape:snap-grids="false"
     inkscape:snap-to-guides="false" />
  <metadata
     id="metadata7">
    <rdf:RDF>
      <cc:Work
         rdf:about="">
        <dc:format>image/svg+xml</dc:format>
        <dc:type
           rdf:resource="http://purl.org/dc/dcmitype/StillImage" />
        <dc:title></dc:title>
      </cc:Work>
    </rdf:RDF>
  </metadata>
  <g
     inkscape:label="landscape"
     inkscape:groupmode="layer"
     id="layer1"
     transform="translate(0,-852.36218)"
     style="display:none">
    <path
       sodipodi:type="arc"
       style="fill:#f2f44c;fill-opacity:1;stroke:none"
       id="path2984"
       sodipodi:cx="111.43278"
       sodipodi:cy="101.84678"
       sodipodi:rx="12.12481"
       sodipodi:ry="12.471233"
       d="m 123.54164,101.20738 a 12.12481,12.471233 0 1 1 -1e-5,-2e-4 l -12.10885,0.6396 z"
       transform="translate(-16.883756,861.00505)"
       sodipodi:start="6.2318931"
       sodipodi:end="12.515062" />
    <path
       style="fill:#7ec37e;fill-opacity:1;stroke:none"
       d="m 33.833536,162.40718 133.454504,0.37593 0,-24.81126 -30.83949,-17.57519 c 0,0 -2.77158,-1.862 -4.35278,-1.8871 -1.57722,-0.025 -3.95282,1.74952 -3.95282,1.74952 l -18.34719,9.96834 c 0,0 -1.97831,1.31034 -3.09116,1.26768 -1.16358,-0.0446 -3.12111,-1.56901 -3.12111,-1.56901 l -36.473373,-30.505 c 0,0 -1.873834,-1.194075 -2.912368,-1.125688 -1.040369,0.06851 -2.74445,1.500516 -2.74445,1.500516 L 33.833536,120.67915 z"
       id="path3878"
       inkscape:connector-curvature="0"
       transform="translate(0,852.36218)"
       sodipodi:nodetypes="ccccsccaccaccc" />
  </g>
  <g
     inkscape:groupmode="layer"
     id="layer2"
     inkscape:label="human"
     style="display:inline">
    <path
       style="fill:#9ba1c5;fill-opacity:1;stroke:none"
       d="m 74.84375,130.75 c -25.110109,3.87097 -65.8125,29.35573 -65.8125,65.8125 0,3.07056 0.221887,6.07481 0.625,9.03125 l 180.6875,0 c 0.40311,-2.95644 0.625,-5.96069 0.625,-9.03125 0,-36.45677 -44.14325,-61.94153 -65.8125,-65.8125 -21.66925,-3.87097 -25.20239,-3.87097 -50.3125,0 z"
       id="rect3754"
       inkscape:connector-curvature="0"
       sodipodi:nodetypes="zsccszz" />
    <path
       style="fill:#9ba1c5;fill-opacity:1;stroke:none"
       d="M 100 33.96875 C 99.280664 33.969215 98.570257 33.993953 97.84375 34.03125 C 74.595266 35.224763 56.712737 55.032766 57.90625 78.28125 C 59.099763 101.52973 78.907766 119.41226 102.15625 118.21875 C 125.40473 117.02524 143.28726 97.217234 142.09375 73.96875 C 140.93718 51.447061 122.29941 33.954345 100 33.96875 z M 88.84375 92.46875 L 111.15625 92.46875 C 110.69658 97.778939 106.24772 102.06295 100.59375 102.34375 C 94.548463 102.64398 89.34515 98.261876 88.84375 92.46875 z "
       id="path3756" />
    <path
       sodipodi:type="arc"
       style="fill:#3e4469;fill-opacity:1;stroke:none"
       id="path3789"
       sodipodi:cx="-11.430674"
       sodipodi:cy="66.154785"
       sodipodi:rx="9.5698662"
       sodipodi:ry="11.031929"
       d="m -1.8733933,65.589181 a 9.5698662,11.031929 0 1 1 -0.0016,-0.03479"
       sodipodi:start="6.2318931"
       sodipodi:end="12.51192"
       sodipodi:open="true"
       transform="matrix(0.73148115,0,0,0.69511809,94.837742,23.212791)" />
    <path
       transform="matrix(0.73148115,0,0,0.69511809,122.38134,23.32852)"
       sodipodi:open="true"
       sodipodi:end="12.51192"
       sodipodi:start="6.2318931"
       d="m -1.8733933,65.589181 a 9.5698662,11.031929 0 1 1 -0.0016,-0.03479"
       sodipodi:ry="11.031929"
       sodipodi:rx="9.5698662"
       sodipodi:cy="66.154785"
       sodipodi:cx="-11.430674"
       id="path3791"
       style="fill:#3e4469;fill-opacity:1;stroke:none"
       sodipodi:type="arc" />
    <g
       id="g3784"
       transform="translate(-0.2652905,0)">
      <path
         inkscape:connector-curvature="0"
         id="rect3772"
         d="m 86.577189,60.647731 c 4.5682,0 8.245848,3.677648 8.245848,8.245847 l 0,0.659667 c 0,4.568199 -3.677648,8.245847 -8.245848,8.245847 -4.568199,0 -8.245848,-3.677648 -8.245848,-8.245847 l 0,-0.659667 c 0,-4.568199 3.677649,-8.245847 8.245848,-8.245847 z"
         style="fill:none;stroke:#212438;stroke-width:3.83431888;stroke-linecap:round;stroke-linejoin:miter;stroke-miterlimit:4;stroke-opacity:1;stroke-dashoffset:19.2" />
      <path
         inkscape:connector-curvature="0"
         id="rect3774"
         d="m 113.9534,60.647731 c 4.56819,0 8.24584,3.677648 8.24584,8.245847 l 0,0.659667 c 0,4.568199 -3.67765,8.245847 -8.24584,8.245847 -4.5682,0 -8.24585,-3.677648 -8.24585,-8.245847 l 0,-0.659667 c 0,-4.568199 3.67765,-8.245847 8.24585,-8.245847 z"
         style="fill:none;stroke:#212438;stroke-width:3.83431888;stroke-linecap:round;stroke-linejoin:miter;stroke-miterlimit:4;stroke-opacity:1;stroke-dashoffset:19.2" />
      <path
         sodipodi:nodetypes="csc"
         inkscape:connector-curvature="0"
         id="rect3776"
         d="m 105.50577,67.911218 c 0,-3.074056 -2.47339,-5.547449 -5.547449,-5.547449 -3.074056,0 -5.547452,2.473393 -5.547452,5.547449"
         style="fill:none;stroke:#212438;stroke-width:2.58020902;stroke-linecap:round;stroke-linejoin:miter;stroke-miterlimit:4;stroke-opacity:1;stroke-dashoffset:19.2" />
    </g>
  </g>
</svg>
